<?xml version="1.0" encoding="UTF-8" standalone="no"?>
<!-- Created with Inkscape (http://www.inkscape.org/) -->

<svg
   xmlns:dc="http://purl.org/dc/elements/1.1/"
   xmlns:cc="http://creativecommons.org/ns#"
   xmlns:rdf="http://www.w3.org/1999/02/22-rdf-syntax-ns#"
   xmlns:svg="http://www.w3.org/2000/svg"
   xmlns="http://www.w3.org/2000/svg"
   xmlns:sodipodi="http://sodipodi.sourceforge.net/DTD/sodipodi-0.dtd"
   xmlns:inkscape="http://www.inkscape.org/namespaces/inkscape"
   width="130.52777mm"
   height="94.720833mm"
   viewBox="0 0 130.52777 94.720833"
   version="1.1"
   id="svg444"
   inkscape:version="0.92.2 (5c3e80d, 2017-08-06)"
   sodipodi:docname="ERDF.svg">
  <defs
     id="defs438">
    <clipPath
       id="clipPath464"
       clipPathUnits="userSpaceOnUse">
      <path
         inkscape:connector-curvature="0"
         id="path462"
         d="M 0,0 H 3700 V 2685 H 0 Z" />
    </clipPath>
  </defs>
  <sodipodi:namedview
     id="base"
     pagecolor="#ffffff"
     bordercolor="#666666"
     borderopacity="1.0"
     inkscape:pageopacity="0.0"
     inkscape:pageshadow="2"
     inkscape:zoom="1.979899"
     inkscape:cx="241.49615"
     inkscape:cy="263.66969"
     inkscape:document-units="mm"
     inkscape:current-layer="layer1"
     showgrid="false"
     fit-margin-top="0"
     fit-margin-left="0"
     fit-margin-right="0"
     fit-margin-bottom="0"
     inkscape:window-width="2736"
     inkscape:window-height="1699"
     inkscape:window-x="5987"
     inkscape:window-y="1581"
     inkscape:window-maximized="1" />
  <metadata
     id="metadata441">
    <rdf:RDF>
      <cc:Work
         rdf:about="">
        <dc:format>image/svg+xml</dc:format>
        <dc:type
           rdf:resource="http://purl.org/dc/dcmitype/StillImage" />
        <dc:title></dc:title>
      </cc:Work>
    </rdf:RDF>
  </metadata>
  <g
     inkscape:label="Layer 1"
     inkscape:groupmode="layer"
     id="layer1"
     transform="translate(144.63889,-101.47292)">
    <g
       transform="matrix(0.35277777,0,0,-0.35277777,-144.63889,196.19375)"
       inkscape:label="ERDF"
       id="g454">
      <g
         transform="scale(0.1)"
         id="g456">
        <g
           id="g458">
          <g
             clip-path="url(#clipPath464)"
             id="g460">
            <path
               inkscape:connector-curvature="0"
               id="path466"
               style="fill:#1f4fa2;fill-opacity:1;fill-rule:nonzero;stroke:none"
               d="M 0,0 H 3700 V 2685 H 0 Z" />
            <path
               inkscape:connector-curvature="0"
               id="path468"
               style="fill:#ffffff;fill-opacity:1;fill-rule:nonzero;stroke:none"
               d="m 2329.64,2223.72 c 0,0 4.21,10.46 12.56,14.72 8.41,4.3 20.12,5.03 33.84,3.47 11.72,-1.27 35.98,-12 71.03,-41.11 48.79,-40.51 66.22,-65.57 66.59,-64.37 3.07,9.84 14.79,28.85 14.79,28.85 -23.05,20.19 -103.58,72.84 -128.64,82.82 -28.21,11.36 -66.98,14.39 -70.17,-24.38 v 0" />
            <path
               inkscape:connector-curvature="0"
               id="path470"
               style="fill:#ffffff;fill-opacity:1;fill-rule:nonzero;stroke:none"
               d="m 2358.91,2272.46 c 34.06,8.53 37.83,-13.94 45.02,-19.34 l 26.07,-15.94 c -35.22,78.02 -71.09,35.28 -71.09,35.28 v 0" />
            <path
               inkscape:connector-curvature="0"
               id="path472"
               style="fill:#ffffff;fill-opacity:1;fill-rule:nonzero;stroke:none"
               d="m 2373.89,2232.8 c 80.83,-59.23 13.08,-86.64 13.08,-86.64 15.88,-6.77 28.53,-2.21 35.44,8.1 2.5,3.88 4.88,8.64 6.22,12.4 2.28,6.4 2.54,11.61 2.54,11.61 28.64,-28.09 59.85,-76.09 80.25,-101.56 -6.2,24.71 -1.42,35.81 -3.35,38.13 -24.33,29.25 -32.46,39.7 -48.37,57.39 -48.13,53.2 -85.81,60.57 -85.81,60.57" />
            <path
               inkscape:connector-curvature="0"
               id="path474"
               style="fill:#ffffff;fill-opacity:1;fill-rule:nonzero;stroke:none"
               d="m 2708.94,2238.52 c -3.81,9.76 -2.58,37.79 -1.49,42.86 4.01,10.76 7.63,21.33 9.83,31.34 l 1.78,-0.92 12.68,-7.94 c -5.26,6.59 -10.28,23.96 -12.94,34.44 -0.2,1.36 -0.46,2.77 -0.83,4.1 -5.56,22.51 -16.91,35.64 -16.91,35.64 0,0 8.3,-21.45 5.5,-38.84 -2.77,-36.31 -54.29,-77.94 -42.65,-141.57 6.43,-35.16 41.63,-63.16 41.63,-63.16 0,0 -11.22,23.16 -19.15,66.84 -3.14,17.17 2.45,30.67 10.07,51.28 l 2.82,-2.64 9.66,-11.43 v 0" />
            <path
               inkscape:connector-curvature="0"
               id="path476"
               style="fill:#ffffff;fill-opacity:1;fill-rule:nonzero;stroke:none"
               d="m 3064.61,2487 c 0,0 -91.38,-14.76 -136.61,-29.26 -45.25,-14.49 -111.25,-43.02 -141.17,-80.42 -29.9,-37.43 -4.73,-96.74 -12.37,-136.24 -7.64,-39.49 -66.24,-79.58 -66.24,-79.58 0,0 68.2,17.46 93.32,72.41 18.48,40.4 -4.97,68.49 23.38,130.85 28.34,62.29 239.69,122.24 239.69,122.24 v 0" />
            <path
               inkscape:connector-curvature="0"
               id="path478"
               style="fill:#ffffff;fill-opacity:1;fill-rule:nonzero;stroke:none"
               d="m 3066.99,2482.6 c 0,0 -75.44,-23.35 -99.21,-97.04 l 33.78,7.46 c 0,0 0.48,45.95 65.43,89.58 v 0" />
            <path
               inkscape:connector-curvature="0"
               id="path480"
               style="fill:#ffffff;fill-opacity:1;fill-rule:nonzero;stroke:none"
               d="m 3186.45,2380.63 c 0,0 -118.78,23.73 -235.52,-10.56 -116.77,-34.25 -100.34,-95.25 -101.62,-129.24 -1.19,-34.02 -30.01,-109.46 -132.76,-99.51 0,0 60.91,-33.28 128.76,21.4 67.8,54.72 20.49,121 75.08,152.59 54.51,31.55 96.81,57.81 266.06,65.32 v 0" />
            <path
               inkscape:connector-curvature="0"
               id="path482"
               style="fill:#ffffff;fill-opacity:1;fill-rule:nonzero;stroke:none"
               d="m 2890.52,2211.9 c 0,0 46.4,-6.47 73.72,-38.4 0,0 -37.39,29 -79.88,21.55 0,0 4.06,8.36 6.16,16.85 v 0" />
            <path
               inkscape:connector-curvature="0"
               id="path484"
               style="fill:#ffffff;fill-opacity:1;fill-rule:nonzero;stroke:none"
               d="m 3091.25,2262.53 c 0,0 -112.09,-2.63 -113.21,-96.85 -2.07,3.52 -61.6,107.37 113.21,96.85 v 0" />
            <path
               inkscape:connector-curvature="0"
               id="path486"
               style="fill:#ffffff;fill-opacity:1;fill-rule:nonzero;stroke:none"
               d="m 3178.29,2374.66 v 0 c -112.87,-23.23 -87.04,-112.17 -87.04,-112.17 v 0 c -57.42,114.16 87.04,112.17 87.04,112.17 v 0" />
            <path
               inkscape:connector-curvature="0"
               id="path488"
               style="fill:#ffffff;fill-opacity:1;fill-rule:nonzero;stroke:none"
               d="m 2865.25,2082 c 29.45,79.43 109.16,82.6 112.07,82.71 -84.75,16.67 -106.34,-26.19 -111.28,-56.28 -72.48,14.16 -134.46,15.63 -134.46,15.63 87.09,-12.18 133.67,-42.06 133.67,-42.06 v 0" />
            <path
               inkscape:connector-curvature="0"
               id="path490"
               style="fill:#ffffff;fill-opacity:1;fill-rule:nonzero;stroke:none"
               d="m 2407.55,1845.83 c 0,0 17.9,9.69 38.83,7.65 12.87,-1.23 37.81,8.1 37.81,8.1 -10.5,0.08 -35.3,12.47 -57.15,9.77 -21.81,-2.72 -19.49,-25.52 -19.49,-25.52 v 0" />
            <path
               inkscape:connector-curvature="0"
               id="path492"
               style="fill:#ffffff;fill-opacity:1;fill-rule:nonzero;stroke:none"
               d="m 2824.34,1901.96 c 0,0 -1.77,17.17 14.63,19.19 16.38,2.07 34.95,-7.27 42.83,-7.31 0,0 -18.63,-7.02 -28.37,-6.11 -15.64,1.51 -29.09,-5.77 -29.09,-5.77 v 0" />
            <path
               inkscape:connector-curvature="0"
               id="path494"
               style="fill:#ffffff;fill-opacity:1;fill-rule:nonzero;stroke:none"
               d="m 2984.27,1836.84 c 0,0 16.1,8.8 35,7 11.6,-1.14 29.38,0.43 29.38,0.43 -9.47,0.07 -24.36,19.41 -46.82,15.65 -19.5,-3.26 -17.56,-23.08 -17.56,-23.08 v 0" />
            <path
               inkscape:connector-curvature="0"
               id="path496"
               style="fill:#ffffff;fill-opacity:1;fill-rule:nonzero;stroke:none"
               d="m 3082.02,2266.9 c -136.46,32.89 -178.93,9.33 -178.93,9.33 0,0 3.01,7.69 4.93,12.02 3.06,6.82 3.91,8.59 4.77,10.23 100.02,3.88 169.23,-31.58 169.23,-31.58 v 0" />
            <path
               inkscape:connector-curvature="0"
               id="path498"
               style="fill:#ffffff;fill-opacity:1;fill-rule:nonzero;stroke:none"
               d="m 2559.44,2353.62 c 0,0 -15.37,16.49 -33.39,16.49 -26.03,0 -47.74,-27.78 -70.9,-27.83 -23.18,0 -34.77,7.85 -34.77,7.85 0,0 14.05,-18.92 36.13,-18.92 28.75,0 50.01,28.26 69.06,28.26 19.01,0.04 33.87,-5.85 33.87,-5.85 v 0" />
            <path
               inkscape:connector-curvature="0"
               id="path500"
               style="fill:#ffffff;fill-opacity:1;fill-rule:nonzero;stroke:none"
               d="m 2619.04,2323.86 c 0,0 4.01,-14.53 1.7,-41.04 -2.25,-45.43 -91.15,-108.03 -90.05,-183.32 0.61,-45.01 33.8,-71.89 33.8,-71.89 0,0 -14.89,39.71 -8.24,79.45 9.19,55.2 78.74,118.15 76.55,172.32 -1.34,31.95 -13.76,44.48 -13.76,44.48 v 0" />
            <path
               inkscape:connector-curvature="0"
               id="path502"
               style="fill:#ffffff;fill-opacity:1;fill-rule:nonzero;stroke:none"
               d="m 2576.06,2028.4 c 0,0 -13.4,31.65 -3.32,59.75 6.58,18.11 23.71,33.56 57.55,42.03 0,0 -59.16,-53.86 -15.76,-100.39 0,0 -30.94,-32.85 -42.77,-60.95 -11.78,-28.02 -37.57,-86.82 -46.07,-100.53 -8.59,-13.59 -20.59,-31.17 -54.37,-46.4 -37.4,-3.27 -78.35,-9.51 -81.03,-38.4 0,0 -7.23,7.23 -6.56,25.46 0.67,18.26 30.95,38.66 62.61,37.56 31.67,-1.15 59.95,6.95 74.77,45.11 14.79,38.22 47.22,130.05 54.95,136.76 v 0" />
            <path
               inkscape:connector-curvature="0"
               id="path504"
               style="fill:#ffffff;fill-opacity:1;fill-rule:nonzero;stroke:none"
               d="m 2626.5,2025.34 c 0,0 -48.21,-147.84 -132.73,-202.13 0,0 51.49,7.36 67.37,0.88 15.91,-6.52 32.21,-17.32 16.73,-42.03 0,0 30.63,16.82 22.17,42.14 -6.64,20.02 -36.69,21.65 -36.69,21.65 0,0 -8.66,3.74 -3.63,16.53 5.03,12.81 37.32,55.36 42.46,63.08 5.13,7.77 47.05,71.02 48.71,74.67 0,0 36.93,-5.24 54.61,29.94 18.45,36.56 -20.87,71.96 -20.87,71.96 0,0 17.24,-39.31 -2.69,-58.62 -23.67,-22.86 -55.44,-18.07 -55.44,-18.07 v 0" />
            <path
               inkscape:connector-curvature="0"
               id="path506"
               style="fill:#ffffff;fill-opacity:1;fill-rule:nonzero;stroke:none"
               d="m 2667.59,1990.87 c 0,0 17.8,3.68 23.84,8.2 0,0 8.24,-8.93 42.3,-8.2 2.87,0.04 4.76,0 5.83,0 37.84,4.7 83.9,18.23 156.31,48.43 l 7.85,-12.9 c -56.52,-19.08 -124.75,-72.81 -210.29,-64.32 -6.08,0.62 -34.18,6.26 -40.03,8.07 3.56,4.77 14.19,20.72 14.19,20.72 v 0" />
            <path
               inkscape:connector-curvature="0"
               id="path508"
               style="fill:#ffffff;fill-opacity:1;fill-rule:nonzero;stroke:none"
               d="m 2911.16,1919.02 c -7.35,-12.2 -18.34,-28.47 -41.74,-36.35 -25.42,0.51 -55.98,-5.75 -58.03,-27.41 0,0 -5.39,5.45 -4.96,19.05 0.51,13.75 19.27,28.68 46.98,27.17 23.77,-1.28 39.1,8.57 49.36,34.61 7.02,17.48 -0.43,55.04 8.96,78.83 0,0 12.8,-9.92 18.46,-14.62 0,0 0.46,0.16 -2.25,-6.32 -8.83,-21.05 -4.61,-51.49 -16.78,-74.96 v 0" />
            <path
               inkscape:connector-curvature="0"
               id="path510"
               style="fill:#ffffff;fill-opacity:1;fill-rule:nonzero;stroke:none"
               d="m 2947.21,1992.43 c 0,0 7.28,-4.96 14.29,-8.76 -5.82,-14.1 -7.7,-23.03 -8.83,-26 -2.41,-6.65 -10.44,-33.65 -14.24,-43.29 -3.8,-9.55 2.68,-12.32 2.68,-12.32 0,0 22.56,-1.27 27.54,-16.27 6.37,-18.99 -16.56,-31.58 -16.56,-31.58 11.56,18.49 -0.65,26.61 -12.57,31.49 -11.95,4.85 -46.87,-0.65 -46.87,-0.65 36.67,20.08 48.67,93.53 54.56,107.38 v 0" />
            <path
               inkscape:connector-curvature="0"
               id="path512"
               style="fill:#ffffff;fill-opacity:1;fill-rule:nonzero;stroke:none"
               d="m 3085.99,1842.81 c 0,0 9.79,-20.38 4.22,-27.87 -22.17,-0.66 -37.25,0.04 -69.98,-3.29 -30.27,-3.08 -49.87,-5.07 -52.25,-31.13 0,0 -6.55,6.53 -5.98,22.99 0.62,16.41 27.93,34.75 56.46,33.7 0,0 35.73,-0.63 39.75,1.48 8.53,4.56 -13.2,46.14 -16.91,53.64 -31.67,63.36 -30.87,83.89 -32.13,87.25 0,0 -88.65,16.61 -110.45,77 70.39,-59.85 128.65,-59.35 128.65,-59.35 7.37,-28.71 37.63,-113.73 58.62,-154.42 v 0" />
            <path
               inkscape:connector-curvature="0"
               id="path514"
               style="fill:#ffffff;fill-opacity:1;fill-rule:nonzero;stroke:none"
               d="m 3142.21,2148.99 c -10.89,-32.35 -17.61,-67.35 -16.28,-105.58 1.2,-35 23.87,-83.65 79.01,-78.72 28.69,2.53 46.65,21.11 55.89,39.93 10.84,22.16 10.12,44.91 10.12,44.91 0,0 0.72,36.15 -33.95,66.87 -19.01,17.35 -48.37,30.7 -94.79,32.59 m -33.25,26.93 c 9.22,0.28 17.02,0.17 25.76,-0.4 38.48,82.23 104.06,167.33 104.06,217.5 0,32.43 -22.33,54.23 -22.33,54.23 l -3.79,-12.21 c 0,0 -18.1,41.42 -31.43,51.87 l 0.42,-0.27 c 0,0 41.64,-16.59 55.84,-28.1 v 0.21 l -10.53,-2.74 h -0.38 c 26.54,-24.54 25.05,-63.46 25.05,-63.46 2.14,-59.7 -62.53,-128.28 -99.97,-218.47 84.33,-10.5 143.22,-62.97 143.22,-120.04 0,-79.99 -48.92,-108.12 -93.41,-108.73 -15.69,-0.15 -33.09,2.33 -53.43,14.39 -23.73,14.03 -43.54,40.14 -43.54,90.98 0,49.85 11.59,80.79 18.14,98.25 l -0.19,0.17 c -20.2,-0.71 -40.12,-3.13 -57.49,-6.74 0,0 -15.7,-4.67 -22.77,-6.83 18.84,-11.04 37.27,-28.98 43.74,-57.06 4.1,-20.12 2.18,-45.72 -7.81,-78.31 -2.14,-31.89 11.76,-79.23 22.54,-114.42 l 12.08,-32.15 c 6.44,-14.21 16.4,-18.21 16.4,-18.21 0,0 24.72,-3.62 31.66,-18.61 9.3,-19.92 -6.62,-30.08 -6.62,-30.08 5.7,23.97 -15.05,26.58 -27.28,28.4 l -1,0.14 c -11.96,1.73 -19.94,0.68 -19.94,0.68 1.53,8.13 -14,51.39 -12.94,48.56 0,0 -19.93,57.25 -28.31,82.44 -8.76,25.91 -14.69,62.73 -14.69,62.73 0,0 59.79,99.64 -73.95,144.58 0,0 9.41,0.98 16.66,0.04 15.1,5.93 34.64,10.02 34.64,10.02 23.77,6.43 50.58,10.63 81.59,11.64 v 0" />
            <path
               inkscape:connector-curvature="0"
               id="path516"
               style="fill:#ffffff;fill-opacity:1;fill-rule:nonzero;stroke:none"
               d="m 2602.52,2409.23 c 0,0 -14.09,-24.27 -36.03,-10.16 0,0 0.51,14.44 12.94,13.06 12.43,-1.41 10.79,-6.5 23.09,-2.9 z m -51.54,-3.09 c 0,0 -46.26,14.75 -74.98,-8.69 l 15.13,-26.07 c 0,0 43.86,35.79 76.3,-15.56 0,0 -24.18,-31.61 -75.2,-22.73 0,0 13.9,-23.9 47.75,-23.69 33.87,0.24 66.82,34.28 77.41,22.8 0,0 -3.56,48.5 55.6,65.62 0,0 13.53,-11.02 15.96,-17.21 0,0 19.4,15.29 18.36,52.79 -1.05,37.53 -22.21,54.59 -29.76,60.99 0,0 4.45,-22.41 -5.5,-43.28 -5.79,-12.14 -18.55,-27.29 -38.08,-27.87 0,0 -16.06,-0.28 -26.72,2.95 -10.66,3.23 -53.03,17.49 -56.27,-20.05 v 0" />
            <path
               inkscape:connector-curvature="0"
               id="path518"
               style="fill:#ffffff;fill-opacity:1;fill-rule:nonzero;stroke:none"
               d="m 2196.18,1644.08 h 14.18 v -100.23 h 36.9 v -12.27 h -51.08 v 112.5" />
            <path
               inkscape:connector-curvature="0"
               id="path520"
               style="fill:#ffffff;fill-opacity:1;fill-rule:nonzero;stroke:none"
               d="m 2260.48,1531.58 h 13.5391 v 120.902 H 2260.48 Z" />
            <path
               inkscape:connector-curvature="0"
               id="path522"
               style="fill:#ffffff;fill-opacity:1;fill-rule:nonzero;stroke:none"
               d="m 2323.98,1514.81 c -4.03,-14.01 -9.84,-19.02 -20.15,-19.02 -3.23,0 -6.77,0.33 -9.19,0.98 l 0.65,12.24 c 2.09,-0.96 4.51,-1.61 7.41,-1.61 3.87,0 6.77,1.77 9.03,10.33 l 3.21,12.56 -25.93,83.5 h 14.18 l 18.37,-67.05 h 0.32 l 17.08,67.05 h 13.54 l -28.52,-98.98" />
            <path
               inkscape:connector-curvature="0"
               id="path524"
               style="fill:#ffffff;fill-opacity:1;fill-rule:nonzero;stroke:none"
               d="m 2447.91,1531.58 h -15.47 l -17.24,69.47 h -0.33 l -15.79,-69.47 h -15.47 l -21.77,82.21 h 14.19 l 15.63,-68.68 h 0.32 l 15.65,68.68 h 16.11 l 16.27,-68.68 h 0.32 l 15.47,68.68 h 13.55 l -21.44,-82.21" />
            <path
               inkscape:connector-curvature="0"
               id="path526"
               style="fill:#ffffff;fill-opacity:1;fill-rule:nonzero;stroke:none"
               d="m 2509.64,1541.41 c 12.89,0 18.85,10.63 18.85,31.28 0,20.61 -5.96,31.25 -18.85,31.25 -12.91,0 -18.86,-10.64 -18.86,-31.25 0,-20.65 5.95,-31.28 18.86,-31.28 z m 0,73.5 c 21.75,0 33.03,-16.44 33.03,-42.22 0,-25.79 -11.28,-42.23 -33.03,-42.23 -21.77,0 -33.06,16.44 -33.06,42.23 0,25.78 11.29,42.22 33.06,42.22" />
            <path
               inkscape:connector-curvature="0"
               id="path528"
               style="fill:#ffffff;fill-opacity:1;fill-rule:nonzero;stroke:none"
               d="m 2585.86,1603.94 c -12.41,0 -18.06,-10.64 -18.06,-31.25 0,-20.65 5.65,-31.28 18.06,-31.28 12.41,0 18.05,10.63 18.05,31.28 0,20.61 -5.64,31.25 -18.05,31.25 z m 31.59,-57.2 c 0,-5 0.48,-10.16 0.64,-15.16 h -13.05 l -0.49,12.09 h -0.32 c -3.55,-6.44 -9.67,-13.21 -21.59,-13.21 -16.93,0 -28.37,13.86 -28.37,42.23 0,28.36 11.44,42.22 28.37,42.22 9.34,0 15.47,-3.71 20.95,-12.4 h 0.32 v 49.97 h 13.54 v -105.74" />
            <path
               inkscape:connector-curvature="0"
               id="path530"
               style="fill:#ffffff;fill-opacity:1;fill-rule:nonzero;stroke:none"
               d="m 2635.81,1596.05 c 0,5.95 -0.48,11.93 -0.64,17.74 h 13.05 l 0.49,-12.9 h 0.33 c 4.34,9.99 11.27,14.02 23.36,14.02 v -13.38 c -1.61,0.33 -3.39,0.47 -5.16,0.47 -10.48,0 -17.89,-9 -17.89,-26.9 v -43.52 h -13.54 v 64.47" />
            <path
               inkscape:connector-curvature="0"
               id="path532"
               style="fill:#ffffff;fill-opacity:1;fill-rule:nonzero;stroke:none"
               d="m 2726.06,1571.87 c -2.41,0.34 -5.79,0.34 -9.51,0.34 -15.95,0 -23.53,-7.59 -23.53,-17.09 0,-8.72 4.52,-14.36 13.87,-14.36 11.76,0 19.17,9.51 19.17,20.79 z m -39.32,36.27 c 6.77,4.36 15.15,6.77 23.2,6.77 12.09,0 19.34,-5.16 21.93,-7.74 3.54,-3.54 7.09,-8.54 7.09,-20.15 v -42.87 c 0,-4.82 0.32,-9.67 0.65,-12.57 h -12.26 l -0.8,11.12 h -0.32 c -3.71,-6.28 -10.48,-12.24 -23.05,-12.24 -13.54,0 -23.69,7.88 -23.69,23.68 0,15.97 10.48,27.72 38.68,27.72 h 7.89 v 3.71 c 0,6.14 -0.47,9.67 -3.06,13.22 -2.73,3.72 -8.06,5.15 -13.7,5.15 -8.38,0 -16.44,-3.37 -21.11,-8.53 l -1.45,12.73" />
            <path
               inkscape:connector-curvature="0"
               id="path534"
               style="fill:#ffffff;fill-opacity:1;fill-rule:nonzero;stroke:none"
               d="m 2801.16,1578.97 c 0,17.08 -5.32,25.62 -16.12,25.62 -8.69,0 -16.43,-6.45 -16.76,-25.62 z m -32.88,-10.32 c 0,-19.02 7.41,-27.89 22.41,-27.89 6.77,0 14.18,3.39 18.86,6.79 l 0.64,-12.26 c -6.45,-3.06 -14.82,-4.83 -23.05,-4.83 -21.75,0 -33.04,16.44 -33.04,42.23 0,25.78 11.29,42.22 31.75,42.22 18.54,0 28.86,-14.84 28.86,-39 v -7.26 h -46.43" />
            <path
               inkscape:connector-curvature="0"
               id="path536"
               style="fill:#ffffff;fill-opacity:1;fill-rule:nonzero;stroke:none"
               d="m 2865.95,1532.54 c -3.23,-1.12 -7.74,-2.08 -11.44,-2.08 -12.42,0 -19.02,4.99 -19.02,19.5 v 52.86 h -13.06 v 10.97 h 13.06 v 16.75 l 13.54,4.04 v -20.79 h 16.92 v -10.97 h -16.92 v -48.51 c 0,-9.35 2.41,-12.9 8.53,-12.9 3.4,0 5.81,0.97 8.39,2.1 v -10.97" />
            <path
               inkscape:connector-curvature="0"
               id="path538"
               style="fill:#ffffff;fill-opacity:1;fill-rule:nonzero;stroke:none"
               d="m 2877.38,1652.48 h 13.54 v -49.97 h 0.33 c 3.54,6.92 10.64,12.4 20.14,12.4 14.34,0 24.01,-8.22 24.01,-26.29 v -57.04 h -13.53 v 53.03 c 0,13.05 -4.83,18.68 -13.54,18.68 -10.64,0 -17.41,-7.4 -17.41,-22.22 v -49.49 h -13.54 v 120.9" />
            <path
               inkscape:connector-curvature="0"
               id="path540"
               style="fill:#ffffff;fill-opacity:1;fill-rule:nonzero;stroke:none"
               d="m 3062.72,1533.84 c -6.77,-2.09 -13.86,-3.38 -20.47,-3.38 -35.61,0 -50.61,27.08 -50.61,57.54 0,35.13 20.47,57.21 49.81,57.21 8.06,0 16.12,-1.45 21.27,-4.04 v -13.86 c -6.12,3.87 -13.21,5.64 -21.11,5.64 -18.38,0 -35.14,-14.64 -35.14,-42.05 0,-29.02 11.61,-48.2 36.1,-48.2 7.26,0 14.35,1.94 20.15,5.33 v -14.19" />
            <path
               inkscape:connector-curvature="0"
               id="path542"
               style="fill:#ffffff;fill-opacity:1;fill-rule:nonzero;stroke:none"
               d="m 3106.07,1514.81 c -4.03,-14.01 -9.84,-19.02 -20.15,-19.02 -3.22,0 -6.77,0.33 -9.19,0.98 l 0.65,12.24 c 2.09,-0.96 4.52,-1.61 7.41,-1.61 3.87,0 6.77,1.77 9.03,10.33 l 3.23,12.56 -25.95,83.5 h 14.18 l 18.37,-67.05 h 0.33 l 17.08,67.05 h 13.54 l -28.53,-98.98" />
            <path
               inkscape:connector-curvature="0"
               id="path544"
               style="fill:#ffffff;fill-opacity:1;fill-rule:nonzero;stroke:none"
               d="m 3145.86,1596.05 c 0,5.95 -0.47,11.93 -0.63,17.74 h 13.05 l 0.48,-12.26 h 0.33 c 4.36,9.35 11.28,13.38 20.3,13.38 8.71,0 15.16,-4.51 19.34,-12.91 4.36,8.08 10.64,12.91 19.99,12.91 14.18,0 23.86,-8.22 23.86,-26.29 v -57.04 h -13.55 V 1588 c 0,10.47 -4.5,15.29 -12.56,15.29 -9.99,0 -15.47,-6.11 -15.47,-20.95 v -50.76 h -13.55 V 1588 c 0,10.47 -4.51,15.29 -12.56,15.29 -10,0 -15.47,-6.11 -15.47,-20.95 v -50.76 h -13.56 v 64.47" />
            <path
               inkscape:connector-curvature="0"
               id="path546"
               style="fill:#ffffff;fill-opacity:1;fill-rule:nonzero;stroke:none"
               d="m 3259,1596.05 c 0,5.95 -0.48,11.93 -0.64,17.74 h 13.06 l 0.47,-12.9 h 0.33 c 4.34,9.99 11.28,14.02 23.37,14.02 v -13.38 c -1.62,0.33 -3.38,0.47 -5.15,0.47 -10.49,0 -17.9,-9 -17.9,-26.9 v -43.52 H 3259 v 64.47" />
            <path
               inkscape:connector-curvature="0"
               id="path548"
               style="fill:#ffffff;fill-opacity:1;fill-rule:nonzero;stroke:none"
               d="m 3364.73,1549.32 c 0,-5.98 0.48,-11.93 0.65,-17.74 h -13.07 l -0.47,12.27 h -0.33 c -4.35,-9.37 -11.29,-13.39 -20.79,-13.39 -14.34,0 -24.02,8.22 -24.02,26.27 v 57.06 h 13.54 v -53.03 c 0,-13.07 4.84,-18.71 13.55,-18.71 10.62,0 17.4,7.41 17.4,22.25 v 49.49 h 13.54 v -64.47" />
            <path
               inkscape:connector-curvature="0"
               id="path550"
               style="fill:#ffffff;fill-opacity:1;fill-rule:nonzero;stroke:none"
               d="m 2197.55,1461.54 h 14.82 l 18.39,-91.23 h 0.31 l 20.15,91.23 h 18.05 l 20.15,-91.23 h 0.32 l 19.67,91.23 h 13.53 l -24.49,-112.5 h -16.77 l -21.27,96.39 h -0.32 l -21.28,-96.39 h -16.76 l -24.5,112.5" />
            <path
               inkscape:connector-curvature="0"
               id="path552"
               style="fill:#ffffff;fill-opacity:1;fill-rule:nonzero;stroke:none"
               d="m 2373.22,1396.42 c 0,17.08 -5.32,25.64 -16.12,25.64 -8.71,0 -16.43,-6.45 -16.76,-25.64 z m -32.88,-10.32 c 0,-19 7.41,-27.86 22.41,-27.86 6.76,0 14.18,3.37 18.85,6.76 l 0.65,-12.26 c -6.45,-3.06 -14.83,-4.83 -23.06,-4.83 -21.75,0 -33.04,16.44 -33.04,42.22 0,25.79 11.29,42.23 31.75,42.23 18.54,0 28.85,-14.82 28.85,-39 v -7.26 h -46.41" />
            <path
               inkscape:connector-curvature="0"
               id="path554"
               style="fill:#ffffff;fill-opacity:1;fill-rule:nonzero;stroke:none"
               d="m 2406.24,1349.04 h 13.5508 v 120.883 H 2406.24 Z" />
            <path
               inkscape:connector-curvature="0"
               id="path556"
               style="fill:#ffffff;fill-opacity:1;fill-rule:nonzero;stroke:none"
               d="m 2440.4,1365 c 6.14,-3.71 12.58,-6.12 19.35,-6.12 10.32,0 15.64,5.31 15.64,11.59 0,5.64 -2.91,9.51 -10.48,12.9 l -9.03,4.04 c -11.76,5.31 -16.12,10.63 -16.12,21.1 0,13.55 10.48,23.85 26.44,23.85 6.77,0 12.73,-1.12 17.41,-2.89 l -0.65,-11.61 c -4.18,1.94 -9.99,3.55 -16.11,3.55 -8.86,0 -13.54,-4.84 -13.54,-11.3 0,-6.6 4.83,-10.29 13.86,-13.85 l 4.84,-1.94 c 9.98,-4.01 16.27,-10.79 16.27,-20.94 0,-14.19 -7.58,-25.47 -26.44,-25.47 -8.53,0 -16.27,1.77 -22.24,4.83 l 0.8,12.26" />
            <path
               inkscape:connector-curvature="0"
               id="path558"
               style="fill:#ffffff;fill-opacity:1;fill-rule:nonzero;stroke:none"
               d="m 2503.59,1469.92 h 13.54 v -49.96 h 0.31 c 3.56,6.93 10.64,12.4 20.15,12.4 14.35,0 24.02,-8.22 24.02,-26.26 v -57.06 h -13.54 v 53.02 c 0,13.07 -4.84,18.71 -13.53,18.71 -10.65,0 -17.41,-7.43 -17.41,-22.25 v -49.48 h -13.54 v 120.88" />
            <path
               inkscape:connector-curvature="0"
               id="path560"
               style="fill:#ffffff;fill-opacity:1;fill-rule:nonzero;stroke:none"
               d="m 2696.34,1353.72 c -6.62,-2.42 -17.9,-5.81 -27.89,-5.81 -35.62,0 -50.6,27.08 -50.6,57.54 0,35.14 20.46,57.22 49.79,57.22 9.68,0 18.7,-1.3 26.44,-5 v -14.17 c -8.54,4.34 -18.05,6.92 -26.27,6.92 -18.37,0 -35.14,-14.67 -35.14,-42.07 0,-29.02 11.6,-48.18 36.11,-48.18 4.51,0 10.31,1.12 14.02,3.06 v 35.46 h -18.86 v 12.23 h 32.4 v -57.2" />
            <path
               inkscape:connector-curvature="0"
               id="path562"
               style="fill:#ffffff;fill-opacity:1;fill-rule:nonzero;stroke:none"
               d="m 2747.57,1358.88 c 12.91,0 18.88,10.64 18.88,31.25 0,20.63 -5.97,31.28 -18.88,31.28 -12.89,0 -18.85,-10.65 -18.85,-31.28 0,-20.61 5.96,-31.25 18.85,-31.25 z m 0,73.48 c 21.77,0 33.06,-16.44 33.06,-42.23 0,-25.78 -11.29,-42.22 -33.06,-42.22 -21.75,0 -33.03,16.44 -33.03,42.22 0,25.79 11.28,42.23 33.03,42.23" />
            <path
               inkscape:connector-curvature="0"
               id="path564"
               style="fill:#ffffff;fill-opacity:1;fill-rule:nonzero;stroke:none"
               d="m 2787.87,1431.24 h 14.83 l 18.05,-68.66 h 0.32 l 18.37,68.66 h 14.19 l -24.66,-82.2 h -16.12 l -24.98,82.2" />
            <path
               inkscape:connector-curvature="0"
               id="path566"
               style="fill:#ffffff;fill-opacity:1;fill-rule:nonzero;stroke:none"
               d="m 2907.94,1396.42 c 0,17.08 -5.32,25.64 -16.12,25.64 -8.7,0 -16.45,-6.45 -16.77,-25.64 z m -32.89,-10.32 c 0,-19 7.42,-27.86 22.4,-27.86 6.78,0 14.19,3.37 18.86,6.76 l 0.65,-12.26 c -6.45,-3.06 -14.83,-4.83 -23.04,-4.83 -21.77,0 -33.05,16.44 -33.05,42.22 0,25.79 11.28,42.23 31.75,42.23 18.53,0 28.85,-14.82 28.85,-39 v -7.26 h -46.42" />
            <path
               inkscape:connector-curvature="0"
               id="path568"
               style="fill:#ffffff;fill-opacity:1;fill-rule:nonzero;stroke:none"
               d="m 2936.45,1413.5 c 0,5.98 -0.48,11.93 -0.64,17.74 h 13.06 l 0.48,-12.89 h 0.32 c 4.34,9.99 11.28,14.01 23.37,14.01 v -13.38 c -1.62,0.33 -3.38,0.5 -5.16,0.5 -10.47,0 -17.89,-9.03 -17.89,-26.93 v -43.51 h -13.54 v 64.46" />
            <path
               inkscape:connector-curvature="0"
               id="path570"
               style="fill:#ffffff;fill-opacity:1;fill-rule:nonzero;stroke:none"
               d="m 2984.15,1413.5 c 0,5.98 -0.47,11.93 -0.65,17.74 h 13.07 l 0.48,-12.26 h 0.32 c 4.35,9.36 11.29,13.38 20.8,13.38 14.33,0 24.01,-8.22 24.01,-26.26 v -57.06 h -13.53 v 53.02 c 0,13.07 -4.85,18.71 -13.56,18.71 -10.62,0 -17.4,-7.43 -17.4,-22.25 v -49.48 h -13.54 v 64.46" />
            <path
               inkscape:connector-curvature="0"
               id="path572"
               style="fill:#ffffff;fill-opacity:1;fill-rule:nonzero;stroke:none"
               d="m 3061.83,1413.5 c 0,5.98 -0.49,11.93 -0.64,17.74 h 13.06 l 0.47,-12.26 h 0.33 c 4.35,9.36 11.28,13.38 20.31,13.38 8.7,0 15.15,-4.51 19.34,-12.88 4.34,8.05 10.64,12.88 19.98,12.88 14.19,0 23.86,-8.22 23.86,-26.26 v -57.06 H 3145 v 56.41 c 0,10.47 -4.52,15.32 -12.58,15.32 -9.99,0 -15.47,-6.14 -15.47,-20.95 v -50.78 h -13.54 v 56.41 c 0,10.47 -4.51,15.32 -12.57,15.32 -9.99,0 -15.47,-6.14 -15.47,-20.95 v -50.78 h -13.54 v 64.46" />
            <path
               inkscape:connector-curvature="0"
               id="path574"
               style="fill:#ffffff;fill-opacity:1;fill-rule:nonzero;stroke:none"
               d="m 3221.22,1396.42 c 0,17.08 -5.31,25.64 -16.11,25.64 -8.7,0 -16.45,-6.45 -16.77,-25.64 z m -32.88,-10.32 c 0,-19 7.42,-27.86 22.4,-27.86 6.77,0 14.18,3.37 18.85,6.76 l 0.65,-12.26 c -6.43,-3.06 -14.82,-4.83 -23.03,-4.83 -21.78,0 -33.05,16.44 -33.05,42.22 0,25.79 11.27,42.23 31.75,42.23 18.54,0 28.85,-14.82 28.85,-39 v -7.26 h -46.42" />
            <path
               inkscape:connector-curvature="0"
               id="path576"
               style="fill:#ffffff;fill-opacity:1;fill-rule:nonzero;stroke:none"
               d="m 3249.74,1413.5 c 0,5.98 -0.48,11.93 -0.65,17.74 h 13.06 l 0.48,-12.26 h 0.33 c 4.34,9.36 11.28,13.38 20.79,13.38 14.34,0 24.01,-8.22 24.01,-26.26 v -57.06 h -13.53 v 53.02 c 0,13.07 -4.85,18.71 -13.55,18.71 -10.62,0 -17.41,-7.43 -17.41,-22.25 v -49.48 h -13.53 v 64.46" />
            <path
               inkscape:connector-curvature="0"
               id="path578"
               style="fill:#ffffff;fill-opacity:1;fill-rule:nonzero;stroke:none"
               d="m 3363.68,1350.01 c -3.23,-1.14 -7.73,-2.1 -11.44,-2.1 -12.41,0 -19.02,5 -19.02,19.51 v 52.85 h -13.06 v 10.97 h 13.06 v 16.75 l 13.54,4.04 v -20.79 h 16.92 v -10.97 h -16.92 v -48.51 c 0,-9.34 2.41,-12.88 8.55,-12.88 3.38,0 5.78,0.96 8.37,2.08 v -10.95" />
            <path
               inkscape:connector-curvature="0"
               id="path580"
               style="fill:#ffffff;fill-opacity:1;fill-rule:nonzero;stroke:none"
               d="M 3378.61,1709.06 H 2179.6 c -2.44,0 -4.42,1.97 -4.42,4.4 0,2.44 1.98,4.42 4.42,4.42 h 1199.01 c 2.43,0 4.41,-1.98 4.41,-4.42 0,-2.43 -1.98,-4.4 -4.41,-4.4" />
            <path
               inkscape:connector-curvature="0"
               id="path582"
               style="fill:#ffffff;fill-opacity:1;fill-rule:nonzero;stroke:none"
               d="m 1088.16,1046.53 c -6.16,-3.22 -12.46,-5.8 -18.9,-7.73 -6.45,-1.93 -12.95,-3.31 -19.5,-4.14 -6.55,-0.82 -13.34,-1.23 -20.36,-1.23 -12.96,0 -24.58,1.78 -34.853,5.37 -10.277,3.58 -19.195,8.87 -26.75,15.84 -7.559,6.99 -13.211,15.15 -16.973,24.49 -3.758,9.36 -5.636,19.61 -5.636,30.78 0,12.82 2.214,24.05 6.66,33.67 4.437,9.64 10.648,17.64 18.636,24.02 7.985,6.37 17.079,11.08 27.286,14.13 10.2,3.04 20.96,4.56 32.28,4.56 16.9,0 36.05,-3.76 57.47,-11.28 v -39.53 c -7.38,4.58 -14.66,8.4 -21.86,11.44 -7.2,3.04 -15.67,4.56 -25.41,4.56 -8.66,0 -16.75,-1.71 -24.27,-5.15 -7.52,-3.44 -13.58,-8.34 -18.16,-14.72 -4.582,-6.38 -6.875,-13.82 -6.875,-22.34 0,-7.52 2.004,-14.42 6.02,-20.69 4.005,-6.26 9.575,-11.24 16.705,-14.92 7.12,-3.69 15.16,-5.54 24.11,-5.54 7.23,0 14.08,0.88 20.52,2.63 6.45,1.76 11.87,3.71 16.28,5.86 4.4,2.15 8.93,4.69 13.58,7.63 v -37.71" />
            <path
               inkscape:connector-curvature="0"
               id="path584"
               style="fill:#ffffff;fill-opacity:1;fill-rule:nonzero;stroke:none"
               d="m 1208.15,1138.81 -14.28,-38.78 c -5.88,5.59 -11.82,8.38 -17.83,8.38 -5.45,0 -10.16,-1.85 -14.13,-5.53 -3.98,-3.69 -7.79,-10.52 -11.44,-20.47 v -47.05 h -38.67 v 109.36 h 38.67 v -26.43 c 2.43,6.51 6.73,12.87 12.89,19.06 6.16,6.2 13.39,9.3 21.7,9.3 4.36,0 8.18,-0.64 11.44,-1.93 3.26,-1.29 7.14,-3.26 11.65,-5.91" />
            <path
               inkscape:connector-curvature="0"
               id="path586"
               style="fill:#ffffff;fill-opacity:1;fill-rule:nonzero;stroke:none"
               d="m 1291.08,1090.15 c 0,8.66 -1.88,15.45 -5.64,20.35 -3.76,4.91 -9.22,7.36 -16.38,7.36 -7.09,0 -12.51,-2.45 -16.27,-7.36 -3.76,-4.9 -5.64,-11.69 -5.64,-20.35 0,-8.6 1.89,-15.4 5.69,-20.41 3.8,-5.01 9.2,-7.52 16.22,-7.52 7.16,0 12.62,2.49 16.38,7.46 3.76,4.98 5.64,11.8 5.64,20.47 z m 40.72,0 c 0,-10.89 -2.37,-20.59 -7.09,-29.11 -4.73,-8.53 -11.8,-15.26 -21.22,-20.2 -9.42,-4.94 -20.89,-7.41 -34.43,-7.41 -13.53,0 -25.01,2.47 -34.43,7.41 -9.42,4.94 -16.47,11.67 -21.16,20.2 -4.69,8.52 -7.03,18.22 -7.03,29.11 0,8.23 1.3,15.72 3.92,22.45 2.61,6.73 6.58,12.69 11.92,17.88 5.33,5.19 11.9,9.19 19.71,11.98 7.8,2.79 16.83,4.19 27.07,4.19 10.32,0 19.43,-1.42 27.34,-4.24 7.91,-2.83 14.46,-6.79 19.66,-11.87 5.19,-5.09 9.11,-11.03 11.76,-17.83 2.65,-6.81 3.98,-14.33 3.98,-22.56" />
            <path
               inkscape:connector-curvature="0"
               id="path588"
               style="fill:#ffffff;fill-opacity:1;fill-rule:nonzero;stroke:none"
               d="m 1468.65,1035.36 h -38.67 v 58.98 c 0,6.01 -0.99,11.26 -2.95,15.73 -1.98,4.48 -6.29,6.72 -12.95,6.72 -3.15,0 -5.93,-0.59 -8.32,-1.78 -2.41,-1.17 -4.55,-2.7 -6.45,-4.56 -1.9,-1.87 -3.49,-3.65 -4.78,-5.37 -1.29,-1.72 -2.62,-3.55 -3.97,-5.48 v -64.24 h -38.68 v 109.36 h 38.68 v -15.69 c 6.08,6.52 12.19,11.09 18.31,13.69 6.13,2.62 12.95,3.93 20.47,3.93 26.21,0 39.31,-15.68 39.31,-47.05 v -64.24" />
            <path
               inkscape:connector-curvature="0"
               id="path590"
               style="fill:#ffffff;fill-opacity:1;fill-rule:nonzero;stroke:none"
               d="m 1565.12,1156.53 c -5.88,1.36 -10.64,2.04 -14.29,2.04 -4.16,0 -7.4,-1.35 -9.72,-4.08 -2.33,-2.72 -3.49,-6.59 -3.49,-11.6 v -3.87 h 19.55 v -26.21 h -19.55 v -77.45 h -38.78 v 77.45 h -17.83 v 26.21 h 17.83 v 1.94 c 0,7.66 1.48,14.91 4.46,21.75 2.96,6.84 7.93,12.48 14.87,16.92 6.95,4.44 16.12,6.66 27.5,6.66 6.45,0 12.93,-0.68 19.45,-2.04 v -27.72" />
            <path
               inkscape:connector-curvature="0"
               id="path592"
               style="fill:#ffffff;fill-opacity:1;fill-rule:nonzero;stroke:none"
               d="m 1638.81,1061.79 v 25.89 c -9.17,-3.72 -15.87,-7.07 -20.09,-10.05 -4.23,-2.97 -6.34,-7 -6.34,-12.08 0,-3.66 1.06,-6.45 3.17,-8.38 2.11,-1.94 4.57,-2.9 7.36,-2.9 2.65,0 5.28,0.73 7.9,2.2 2.61,1.47 5.27,3.24 8,5.32 z m 53.82,-20.95 c -5.66,-2.22 -10.89,-4.01 -15.69,-5.37 -4.8,-1.36 -10.56,-2.04 -17.29,-2.04 -6.38,0 -10.82,1.13 -13.32,3.38 -2.51,2.26 -4.3,5 -5.37,8.22 -4.16,-3.37 -8.78,-6.14 -13.86,-8.32 -5.09,-2.19 -11.75,-3.28 -19.98,-3.28 -7.95,0 -14.38,1.37 -19.28,4.14 -4.91,2.75 -8.35,6.23 -10.32,10.41 -1.97,4.2 -2.95,8.5 -2.95,12.95 0,6.73 1.7,12.3 5.1,16.7 3.4,4.41 7.97,8 13.7,10.8 5.73,2.79 13.32,5.69 22.77,8.7 5.37,1.72 9.44,3.03 12.19,3.91 2.76,0.9 4.82,1.61 6.18,2.1 1.36,0.5 2.79,1.15 4.3,1.94 0,5.3 -1.08,9.45 -3.22,12.46 -2.15,3.01 -6.81,4.51 -13.97,4.51 -8.45,0 -16.29,-1.86 -23.52,-5.59 -7.24,-3.72 -13.86,-8.52 -19.88,-14.39 v 29.65 c 4.8,3.44 9.99,6.25 15.58,8.43 5.58,2.18 11.42,3.81 17.51,4.89 6.08,1.07 12.24,1.61 18.48,1.61 15.82,0 27.72,-3.07 35.71,-9.18 7.99,-6.13 11.98,-14.56 11.98,-25.3 v -42.22 c 0,-4.01 0.38,-7 1.13,-8.96 0.75,-1.98 2.13,-2.96 4.13,-2.96 2.44,0 5.73,1.03 9.89,3.11 v -20.3" />
            <path
               inkscape:connector-curvature="0"
               id="path594"
               style="fill:#ffffff;fill-opacity:1;fill-rule:nonzero;stroke:none"
               d="m 1883.84,1109.05 c 0,12.1 -2.31,21.55 -6.93,28.3 -4.62,6.78 -10.17,11.3 -16.65,13.6 -6.49,2.29 -13.09,3.43 -19.82,3.43 h -19.12 v -88.19 h 19.12 c 11.74,0 21.91,2.79 30.51,8.38 8.59,5.59 12.89,17.08 12.89,34.48 z m 45.65,-1.93 c 0,-15.25 -2.78,-27.5 -8.32,-36.74 -5.55,-9.24 -12.09,-16.72 -19.61,-22.45 -10.67,-8.38 -25.6,-12.57 -44.79,-12.57 h -80.35 v 148.89 h 61.87 c 9.31,0 17.28,-0.49 23.9,-1.45 6.62,-0.97 12.59,-2.33 17.89,-4.08 5.3,-1.76 9.81,-3.73 13.53,-5.92 3.72,-2.18 7.05,-4.52 9.99,-7.03 5.09,-4.15 9.54,-9.06 13.38,-14.72 3.83,-5.65 6.87,-12.2 9.13,-19.65 2.25,-7.45 3.38,-15.54 3.38,-24.28" />
            <path
               inkscape:connector-curvature="0"
               id="path596"
               style="fill:#ffffff;fill-opacity:1;fill-rule:nonzero;stroke:none"
               d="m 2010.49,1061.79 v 25.89 c -9.17,-3.72 -15.87,-7.07 -20.09,-10.05 -4.23,-2.97 -6.34,-7 -6.34,-12.08 0,-3.66 1.06,-6.45 3.17,-8.38 2.11,-1.94 4.57,-2.9 7.36,-2.9 2.65,0 5.28,0.73 7.9,2.2 2.61,1.47 5.27,3.24 8,5.32 z m 53.82,-20.95 c -5.66,-2.22 -10.89,-4.01 -15.69,-5.37 -4.8,-1.36 -10.56,-2.04 -17.29,-2.04 -6.38,0 -10.82,1.13 -13.32,3.38 -2.51,2.26 -4.3,5 -5.37,8.22 -4.16,-3.37 -8.78,-6.14 -13.86,-8.32 -5.09,-2.19 -11.75,-3.28 -19.98,-3.28 -7.95,0 -14.38,1.37 -19.28,4.14 -4.91,2.75 -8.35,6.23 -10.32,10.41 -1.97,4.2 -2.95,8.5 -2.95,12.95 0,6.73 1.7,12.3 5.1,16.7 3.4,4.41 7.97,8 13.7,10.8 5.73,2.79 13.32,5.69 22.77,8.7 5.37,1.72 9.44,3.03 12.19,3.91 2.76,0.9 4.82,1.61 6.18,2.1 1.36,0.5 2.79,1.15 4.3,1.94 0,5.3 -1.08,9.45 -3.22,12.46 -2.15,3.01 -6.81,4.51 -13.97,4.51 -8.45,0 -16.29,-1.86 -23.52,-5.59 -7.24,-3.72 -13.86,-8.52 -19.88,-14.39 v 29.65 c 4.8,3.44 9.99,6.25 15.58,8.43 5.58,2.18 11.42,3.81 17.51,4.89 6.08,1.07 12.24,1.61 18.47,1.61 15.83,0 27.73,-3.07 35.72,-9.18 7.99,-6.13 11.98,-14.56 11.98,-25.3 v -42.22 c 0,-4.01 0.38,-7 1.13,-8.96 0.75,-1.98 2.13,-2.96 4.13,-2.96 2.44,0 5.73,1.03 9.89,3.11 v -20.3" />
            <path
               inkscape:connector-curvature="0"
               id="path598"
               style="fill:#ffffff;fill-opacity:1;fill-rule:nonzero;stroke:none"
               d="m 2162.71,1041.7 c -4.02,-1.93 -9.55,-3.8 -16.6,-5.59 -7.06,-1.78 -13.81,-2.68 -20.25,-2.68 -27.86,0 -41.79,13.6 -41.79,40.82 v 43.61 h -17.51 v 6.77 l 51.89,52.85 h 4.4 v -32.76 h 36.95 v -26.86 h -36.95 v -35.02 c 0,-4.08 0.25,-7.37 0.75,-9.88 0.5,-2.51 1.92,-4.6 4.25,-6.29 2.32,-1.68 5.85,-2.52 10.58,-2.52 6.15,0 14.25,2.58 24.28,7.73 v -30.18" />
            <path
               inkscape:connector-curvature="0"
               id="path600"
               style="fill:#ffffff;fill-opacity:1;fill-rule:nonzero;stroke:none"
               d="m 2259.06,1090.15 c 0,9.38 -2.11,16.52 -6.34,21.42 -4.22,4.91 -9.23,7.37 -15.03,7.37 -5.81,0 -12.32,-2.33 -19.56,-6.99 v -41.78 c 5.44,-5.16 11.97,-7.74 19.56,-7.74 4.79,0 9.56,1.95 14.28,5.86 4.73,3.9 7.09,11.18 7.09,21.86 z m 40.72,-0.86 c 0,-12.68 -2.48,-23.19 -7.42,-31.53 -4.94,-8.35 -11.24,-14.49 -18.9,-18.42 -7.67,-3.94 -15.47,-5.91 -23.42,-5.91 -5.73,0 -10.68,0.66 -14.88,1.99 -4.18,1.32 -7.45,2.75 -9.77,4.3 -2.33,1.53 -4.75,3.38 -7.26,5.52 v -9.88 h -38.67 v 148.89 h 38.67 v -45.98 c 2.87,2.22 6.81,4.17 11.82,5.86 5.01,1.68 10.81,2.52 17.4,2.52 8.81,0 16.59,-1.59 23.31,-4.78 6.73,-3.19 12.23,-7.5 16.49,-12.94 4.27,-5.44 7.43,-11.56 9.51,-18.31 2.08,-6.78 3.12,-13.88 3.12,-21.33" />
            <path
               inkscape:connector-curvature="0"
               id="path602"
               style="fill:#ffffff;fill-opacity:1;fill-rule:nonzero;stroke:none"
               d="m 2318.68,1035.36 h 38.7813 v 148.891 H 2318.68 Z" />
            <path
               inkscape:connector-curvature="0"
               id="path604"
               style="fill:#ffffff;fill-opacity:1;fill-rule:nonzero;stroke:none"
               d="m 2501.3,1144.72 -74.34,-159.099 h -39.1 l 30.08,64.029 -43.29,95.07 h 41.57 l 22.24,-54.36 25.24,54.36 h 37.6" />
            <path
               inkscape:connector-curvature="0"
               id="path606"
               style="fill:#ffffff;fill-opacity:1;fill-rule:nonzero;stroke:none"
               d="m 2579.61,1102.93 c 0,5.52 -1.89,9.93 -5.64,13.27 -3.76,3.32 -7.96,4.99 -12.62,4.99 -5.95,0 -10.62,-2 -14.02,-6.01 -3.4,-4.02 -5.1,-8.24 -5.1,-12.68 0,-3.08 0.73,-5.95 2.19,-8.59 1.48,-2.65 3.56,-4.78 6.23,-6.4 2.7,-1.6 5.9,-2.41 9.62,-2.41 5.59,0 10.21,1.76 13.86,5.26 3.65,3.51 5.48,7.7 5.48,12.57 z m 7.73,-87.98 c 0,4.8 -2.55,7.89 -7.68,9.3 -5.12,1.38 -10.4,2.09 -15.84,2.09 -8.96,0 -15.41,-0.95 -19.4,-2.85 -3.96,-1.9 -5.95,-4.93 -5.95,-9.08 0,-8.16 8.23,-12.24 24.7,-12.24 7.38,0 13.26,1.05 17.62,3.17 4.37,2.11 6.55,5.31 6.55,9.61 z m 35.02,106.46 h -19.12 c 6.73,-5.87 10.1,-13.07 10.1,-21.6 0,-4.51 -0.95,-8.84 -2.84,-12.99 -1.91,-4.15 -4.7,-7.85 -8.38,-11.07 -3.69,-3.22 -8.24,-5.86 -13.65,-7.89 -5.4,-2.05 -11.59,-3.28 -18.53,-3.71 -8.95,-0.36 -13.43,-2.75 -13.43,-7.2 0,-1.72 0.58,-2.97 1.72,-3.76 1.15,-0.79 2.95,-1.37 5.43,-1.77 2.46,-0.39 6.64,-0.84 12.51,-1.34 6.66,-0.58 12.85,-1.57 18.59,-3.01 5.73,-1.44 11.06,-4.44 16,-9.02 4.94,-4.58 7.41,-11.14 7.41,-19.66 0,-6.81 -1.84,-12.82 -5.52,-18.05 -3.69,-5.219 -9.66,-9.301 -17.89,-12.238 -8.24,-2.942 -19.13,-4.411 -32.66,-4.411 -19.48,0 -33.79,2.618 -42.91,7.84 -9.14,5.231 -13.7,12.209 -13.7,20.949 0,2.36 0.59,5.09 1.77,8.16 1.19,3.08 3.69,6.06 7.52,8.92 3.83,2.86 9.4,4.8 16.7,5.8 -2.57,0.93 -4.79,2.74 -6.66,5.43 -1.86,2.68 -2.79,5.49 -2.79,8.43 0,3.8 1.31,7.56 3.92,11.28 2.61,3.72 6.86,6.12 12.73,7.2 -8.16,2.14 -15.21,6.19 -21.16,12.13 -5.95,5.95 -8.92,13.65 -8.92,23.1 0,7.16 1.38,13.43 4.14,18.8 2.76,5.37 6.57,9.73 11.44,13.1 4.87,3.37 10.53,5.86 16.97,7.46 6.45,1.63 13.5,2.43 21.16,2.43 h 60.05 v -23.31" />
            <path
               inkscape:connector-curvature="0"
               id="path608"
               style="fill:#ffffff;fill-opacity:1;fill-rule:nonzero;stroke:none"
               d="m 2751.38,1035.36 h -38.67 v 15.58 c -5.46,-5.87 -11.2,-10.27 -17.18,-13.16 -6,-2.91 -13.21,-4.35 -21.6,-4.35 -16.51,0 -27.18,4.81 -32.04,14.45 -4.85,9.63 -7.28,20.5 -7.28,32.6 v 64.24 h 38.67 v -59.09 c 0,-5.94 0.99,-11.15 2.96,-15.62 1.97,-4.48 6.27,-6.72 12.87,-6.72 5.68,0 10.17,1.61 13.47,4.83 3.3,3.23 6.68,7.35 10.13,12.36 v 64.24 h 38.67 v -109.36" />
            <path
               inkscape:connector-curvature="0"
               id="path610"
               style="fill:#ffffff;fill-opacity:1;fill-rule:nonzero;stroke:none"
               d="m 864.617,877.199 c 0,6.871 -2.254,11.672 -6.765,14.391 -4.512,2.73 -11.856,4.082 -22.024,4.082 h -9.449 v -35.883 h 9.668 c 10.957,0 18.457,1.211 22.504,3.602 4.043,2.398 6.066,7 6.066,13.808 z m 61.02,-101.84 h -48.235 l -11.711,26.43 c -4.296,9.672 -8.164,16.742 -11.597,21.211 -3.442,4.48 -6.789,7.34 -10.047,8.59 -3.262,1.262 -7.465,1.89 -12.621,1.89 h -5.047 V 775.359 H 781.477 V 924.25 h 76.375 c 12.316,0 22.414,-2.512 30.293,-7.52 7.875,-5.011 13.55,-11.109 17.027,-18.261 3.473,-7.16 5.211,-13.969 5.211,-20.41 0,-7.52 -1.453,-13.879 -4.352,-19.071 -2.902,-5.187 -5.965,-8.968 -9.183,-11.328 -3.227,-2.371 -6.844,-4.621 -10.852,-6.769 4.797,-2.789 8.754,-6.102 11.871,-9.942 3.113,-3.828 7.36,-11.578 12.731,-23.25 l 15.039,-32.34" />
            <path
               inkscape:connector-curvature="0"
               id="path612"
               style="fill:#ffffff;fill-opacity:1;fill-rule:nonzero;stroke:none"
               d="m 1056.47,775.359 h -38.67 v 56.719 c 0,0.434 0.02,0.844 0.06,1.231 0.03,0.402 0.05,1.242 0.05,2.531 0,5.219 -1.11,10.031 -3.33,14.39 -2.22,4.372 -6.45,6.559 -12.68,6.559 -4.869,0 -9.166,-1.629 -12.884,-4.891 -3.727,-3.257 -7.274,-7.359 -10.637,-12.296 V 775.359 H 939.707 V 924.25 h 38.672 v -55.219 c 6.371,6.809 12.676,11.449 18.906,13.91 6.235,2.481 12.855,3.707 19.875,3.707 26.21,0 39.31,-14.718 39.31,-44.148 v -67.141" />
            <path
               inkscape:connector-curvature="0"
               id="path614"
               style="fill:#ffffff;fill-opacity:1;fill-rule:nonzero;stroke:none"
               d="m 1139.3,801.789 v 25.891 c -9.17,-3.719 -15.87,-7.071 -20.09,-10.051 -4.23,-2.969 -6.34,-7 -6.34,-12.078 0,-3.66 1.06,-6.449 3.17,-8.379 2.11,-1.942 4.57,-2.902 7.36,-2.902 2.64,0 5.28,0.73 7.89,2.199 2.62,1.472 5.28,3.242 8.01,5.32 z m 53.82,-20.949 c -5.66,-2.219 -10.89,-4.012 -15.69,-5.371 -4.8,-1.36 -10.56,-2.039 -17.29,-2.039 -6.38,0 -10.82,1.129 -13.32,3.379 -2.51,2.261 -4.3,5 -5.37,8.222 -4.16,-3.371 -8.78,-6.14 -13.86,-8.32 -5.09,-2.191 -11.75,-3.281 -19.98,-3.281 -7.95,0 -14.38,1.371 -19.28,4.14 -4.91,2.75 -8.35,6.231 -10.32,10.41 -1.97,4.2 -2.95,8.5 -2.95,12.95 0,6.73 1.7,12.3 5.1,16.699 3.4,4.41 7.97,8 13.7,10.801 5.72,2.789 13.32,5.691 22.77,8.699 5.37,1.723 9.43,3.031 12.19,3.91 2.76,0.902 4.82,1.609 6.18,2.102 1.36,0.5 2.79,1.148 4.3,1.937 0,5.301 -1.08,9.453 -3.23,12.461 -2.14,3.012 -6.8,4.512 -13.96,4.512 -8.45,0 -16.29,-1.86 -23.53,-5.59 -7.23,-3.723 -13.85,-8.52 -19.87,-14.391 v 29.649 c 4.8,3.441 9.99,6.25 15.58,8.429 5.58,2.184 11.42,3.813 17.51,4.891 6.08,1.07 12.24,1.609 18.47,1.609 15.83,0 27.73,-3.066 35.72,-9.179 7.98,-6.129 11.98,-14.559 11.98,-25.297 v -42.223 c 0,-4.008 0.37,-7 1.13,-8.961 0.75,-1.976 2.13,-2.957 4.13,-2.957 2.43,0 5.73,1.028 9.89,3.11 V 780.84" />
            <path
               inkscape:connector-curvature="0"
               id="path616"
               style="fill:#ffffff;fill-opacity:1;fill-rule:nonzero;stroke:none"
               d="m 1325.14,775.359 h -38.68 v 58.981 c 0,6.012 -0.98,11.262 -2.95,15.73 -1.97,4.481 -6.28,6.719 -12.94,6.719 -3.16,0 -5.93,-0.59 -8.33,-1.777 -2.4,-1.172 -4.55,-2.703 -6.44,-4.563 -1.9,-1.867 -3.5,-3.648 -4.78,-5.371 -1.29,-1.719 -2.62,-3.547 -3.98,-5.476 v -64.243 h -38.67 v 109.36 h 38.67 v -15.688 c 6.09,6.52 12.19,11.09 18.32,13.688 6.12,2.621 12.94,3.929 20.46,3.929 26.21,0 39.32,-15.679 39.32,-47.046 v -64.243" />
            <path
               inkscape:connector-curvature="0"
               id="path618"
               style="fill:#ffffff;fill-opacity:1;fill-rule:nonzero;stroke:none"
               d="m 1427.72,830.148 c 0,9.383 -2.11,16.524 -6.33,21.422 -4.23,4.91 -9.24,7.371 -15.04,7.371 -5.8,0 -12.32,-2.332 -19.55,-6.992 v -41.777 c 5.44,-5.16 11.95,-7.742 19.55,-7.742 4.79,0 9.56,1.949 14.28,5.859 4.73,3.902 7.09,11.18 7.09,21.859 z m 40.72,-0.859 c 0,-12.68 -2.47,-23.187 -7.41,-31.527 -4.95,-8.352 -11.25,-14.492 -18.91,-18.422 -7.67,-3.942 -15.47,-5.91 -23.42,-5.91 -5.73,0 -10.69,0.66 -14.88,1.992 -4.19,1.316 -7.45,2.75 -9.77,4.297 -2.33,1.531 -4.75,3.383 -7.25,5.519 v -9.879 h -38.67 V 924.25 h 38.67 v -45.98 c 2.86,2.218 6.8,4.171 11.81,5.859 5.01,1.68 10.81,2.519 17.41,2.519 8.8,0 16.57,-1.589 23.31,-4.777 6.72,-3.191 12.22,-7.5 16.49,-12.941 4.25,-5.442 7.42,-11.559 9.5,-18.309 2.08,-6.781 3.12,-13.883 3.12,-21.332" />
            <path
               inkscape:connector-curvature="0"
               id="path620"
               style="fill:#ffffff;fill-opacity:1;fill-rule:nonzero;stroke:none"
               d="m 1548.14,801.789 v 25.891 c -9.17,-3.719 -15.86,-7.071 -20.08,-10.051 -4.23,-2.969 -6.34,-7 -6.34,-12.078 0,-3.66 1.05,-6.449 3.17,-8.379 2.11,-1.942 4.56,-2.902 7.36,-2.902 2.64,0 5.27,0.73 7.89,2.199 2.61,1.472 5.28,3.242 8,5.32 z m 53.82,-20.949 c -5.66,-2.219 -10.89,-4.012 -15.68,-5.371 -4.8,-1.36 -10.57,-2.039 -17.3,-2.039 -6.37,0 -10.81,1.129 -13.32,3.379 -2.51,2.261 -4.29,5 -5.37,8.222 -4.15,-3.371 -8.77,-6.14 -13.85,-8.32 -5.09,-2.191 -11.75,-3.281 -19.98,-3.281 -7.95,0 -14.38,1.371 -19.29,4.14 -4.9,2.75 -8.34,6.231 -10.31,10.41 -1.97,4.2 -2.95,8.5 -2.95,12.95 0,6.73 1.7,12.3 5.1,16.699 3.4,4.41 7.96,8 13.7,10.801 5.72,2.789 13.32,5.691 22.77,8.699 5.37,1.723 9.43,3.031 12.19,3.91 2.75,0.902 4.82,1.609 6.18,2.102 1.36,0.5 2.79,1.148 4.29,1.937 0,5.301 -1.07,9.453 -3.22,12.461 -2.15,3.012 -6.8,4.512 -13.96,4.512 -8.46,0 -16.3,-1.86 -23.53,-5.59 -7.23,-3.723 -13.86,-8.52 -19.87,-14.391 v 29.649 c 4.79,3.441 9.99,6.25 15.57,8.429 5.59,2.184 11.43,3.813 17.51,4.891 6.09,1.07 12.25,1.609 18.48,1.609 15.83,0 27.73,-3.066 35.72,-9.179 7.98,-6.129 11.98,-14.559 11.98,-25.297 v -42.223 c 0,-4.008 0.37,-7 1.12,-8.961 0.76,-1.976 2.13,-2.957 4.14,-2.957 2.43,0 5.73,1.028 9.88,3.11 V 780.84" />
            <path
               inkscape:connector-curvature="0"
               id="path622"
               style="fill:#ffffff;fill-opacity:1;fill-rule:nonzero;stroke:none"
               d="m 1713.36,878.809 -14.29,-38.778 c -5.87,5.59 -11.81,8.379 -17.83,8.379 -5.44,0 -10.15,-1.851 -14.13,-5.531 -3.97,-3.688 -7.78,-10.52 -11.44,-20.469 V 775.359 H 1617 v 109.36 h 38.67 v -26.43 c 2.44,6.512 6.73,12.871 12.89,19.063 6.16,6.199 13.39,9.296 21.7,9.296 4.37,0 8.18,-0.636 11.44,-1.929 3.26,-1.289 7.15,-3.258 11.66,-5.91" />
            <path
               inkscape:connector-curvature="0"
               id="path624"
               style="fill:#ffffff;fill-opacity:1;fill-rule:nonzero;stroke:none"
               d="m 1808.86,781.699 c -4.02,-1.929 -9.55,-3.801 -16.6,-5.59 -7.05,-1.781 -13.8,-2.679 -20.25,-2.679 -27.86,0 -41.79,13.601 -41.79,40.82 v 43.609 h -17.51 v 6.77 l 51.89,52.851 h 4.4 v -32.761 h 36.96 v -26.86 H 1769 V 822.84 c 0,-4.078 0.25,-7.371 0.76,-9.879 0.49,-2.512 1.91,-4.602 4.24,-6.289 2.32,-1.684 5.85,-2.524 10.58,-2.524 6.16,0 14.25,2.582 24.28,7.731 v -30.18" />
            <path
               inkscape:connector-curvature="0"
               id="path626"
               style="fill:#ffffff;fill-opacity:1;fill-rule:nonzero;stroke:none"
               d="m 1942.6,775.359 h -38.67 v 56.719 c 0,0.434 0.01,0.844 0.05,1.231 0.03,0.402 0.05,1.242 0.05,2.531 0,5.219 -1.11,10.031 -3.33,14.39 -2.22,4.372 -6.44,6.559 -12.67,6.559 -4.88,0 -9.17,-1.629 -12.89,-4.891 -3.73,-3.257 -7.27,-7.359 -10.64,-12.296 v -64.243 h -38.67 V 924.25 h 38.67 v -55.219 c 6.37,6.809 12.68,11.449 18.91,13.91 6.23,2.481 12.85,3.707 19.87,3.707 26.21,0 39.32,-14.718 39.32,-44.148 v -67.141" />
            <path
               inkscape:connector-curvature="0"
               id="path628"
               style="fill:#ffffff;fill-opacity:1;fill-rule:nonzero;stroke:none"
               d="m 2045.83,830.148 c 0,8.661 -1.88,15.454 -5.64,20.352 -3.76,4.91 -9.22,7.359 -16.38,7.359 -7.09,0 -12.52,-2.449 -16.28,-7.359 -3.76,-4.898 -5.64,-11.691 -5.64,-20.352 0,-8.597 1.9,-15.398 5.7,-20.41 3.79,-5.008 9.2,-7.519 16.22,-7.519 7.16,0 12.62,2.492 16.38,7.461 3.76,4.98 5.64,11.8 5.64,20.468 z m 40.71,0 c 0,-10.886 -2.36,-20.589 -7.09,-29.109 -4.72,-8.527 -11.8,-15.258 -21.21,-20.199 -9.42,-4.942 -20.9,-7.41 -34.43,-7.41 -13.54,0 -25.02,2.468 -34.43,7.41 -9.42,4.941 -16.47,11.672 -21.16,20.199 -4.69,8.52 -7.04,18.223 -7.04,29.109 0,8.231 1.31,15.723 3.92,22.454 2.61,6.726 6.59,12.687 11.93,17.878 5.33,5.192 11.9,9.192 19.71,11.981 7.8,2.789 16.82,4.187 27.07,4.187 10.31,0 19.42,-1.418 27.34,-4.238 7.91,-2.832 14.46,-6.789 19.66,-11.871 5.19,-5.09 9.11,-11.027 11.76,-17.828 2.64,-6.813 3.97,-14.332 3.97,-22.563" />
            <path
               inkscape:connector-curvature="0"
               id="path630"
               style="fill:#ffffff;fill-opacity:1;fill-rule:nonzero;stroke:none"
               d="m 2108.56,775.359 h 38.7813 V 924.25 H 2108.56 Z" />
            <path
               inkscape:connector-curvature="0"
               id="path632"
               style="fill:#ffffff;fill-opacity:1;fill-rule:nonzero;stroke:none"
               d="M 2357.89,775.359 H 2245.63 V 924.25 h 110.43 v -29.871 h -65.52 v -27.277 h 62.52 v -29.973 h -62.52 v -31.797 h 67.35 v -29.973" />
            <path
               inkscape:connector-curvature="0"
               id="path634"
               style="fill:#ffffff;fill-opacity:1;fill-rule:nonzero;stroke:none"
               d="m 2555.65,884.719 -43.18,-109.36 h -24.38 l -24.39,59.621 -24.28,-59.621 h -24.38 l -44.26,109.36 h 39.21 l 19.98,-55.219 21.38,55.219 h 24.6 l 21.59,-55.219 19.34,55.219 h 38.77" />
            <path
               inkscape:connector-curvature="0"
               id="path636"
               style="fill:#ffffff;fill-opacity:1;fill-rule:nonzero;stroke:none"
               d="m 2665.65,878.809 -14.28,-38.778 c -5.87,5.59 -11.82,8.379 -17.83,8.379 -5.44,0 -10.15,-1.851 -14.14,-5.531 -3.96,-3.688 -7.78,-10.52 -11.43,-20.469 v -47.051 h -38.67 v 109.36 h 38.67 v -26.43 c 2.43,6.512 6.73,12.871 12.89,19.063 6.16,6.199 13.39,9.296 21.7,9.296 4.36,0 8.18,-0.636 11.43,-1.929 3.27,-1.289 7.15,-3.258 11.66,-5.91" />
            <path
               inkscape:connector-curvature="0"
               id="path638"
               style="fill:#ffffff;fill-opacity:1;fill-rule:nonzero;stroke:none"
               d="m 2748.58,830.148 c 0,8.661 -1.87,15.454 -5.64,20.352 -3.75,4.91 -9.22,7.359 -16.38,7.359 -7.09,0 -12.51,-2.449 -16.28,-7.359 -3.75,-4.898 -5.63,-11.691 -5.63,-20.352 0,-8.597 1.89,-15.398 5.69,-20.41 3.8,-5.008 9.2,-7.519 16.22,-7.519 7.16,0 12.63,2.492 16.38,7.461 3.77,4.98 5.64,11.8 5.64,20.468 z m 40.72,0 c 0,-10.886 -2.37,-20.589 -7.09,-29.109 -4.73,-8.527 -11.8,-15.258 -21.22,-20.199 -9.42,-4.942 -20.89,-7.41 -34.43,-7.41 -13.53,0 -25.01,2.468 -34.42,7.41 -9.43,4.941 -16.48,11.672 -21.17,20.199 -4.69,8.52 -7.03,18.223 -7.03,29.109 0,8.231 1.3,15.723 3.92,22.454 2.61,6.726 6.58,12.687 11.92,17.878 5.34,5.192 11.91,9.192 19.71,11.981 7.8,2.789 16.83,4.187 27.07,4.187 10.32,0 19.43,-1.418 27.34,-4.238 7.92,-2.832 14.47,-6.789 19.66,-11.871 5.19,-5.09 9.12,-11.027 11.76,-17.828 2.65,-6.813 3.98,-14.332 3.98,-22.563" />
            <path
               inkscape:connector-curvature="0"
               id="path640"
               style="fill:#ffffff;fill-opacity:1;fill-rule:nonzero;stroke:none"
               d="m 2888.77,829.93 c 0,6.59 -1.04,11.941 -3.12,16.058 -2.08,4.121 -4.76,7.09 -8.05,8.922 -3.29,1.82 -6.7,2.738 -10.21,2.738 -4.58,0 -8.34,-0.738 -11.28,-2.207 -2.94,-1.472 -5.69,-3.312 -8.27,-5.531 v -41.789 c 1.36,-0.711 2.81,-1.519 4.35,-2.41 1.54,-0.902 3.08,-1.672 4.63,-2.313 1.53,-0.648 3.18,-1.179 4.94,-1.609 1.75,-0.43 3.63,-0.648 5.63,-0.648 6.09,0 11.17,2.578 15.26,7.738 4.08,5.152 6.12,12.172 6.12,21.051 z m 40.71,0.859 c 0,-7.301 -1.03,-14.348 -3.11,-21.16 -2.08,-6.809 -5.25,-12.938 -9.51,-18.43 -4.26,-5.469 -9.74,-9.801 -16.43,-12.988 -6.7,-3.191 -14.49,-4.781 -23.37,-4.781 -7.16,0 -12.8,0.75 -16.92,2.25 -4.11,1.511 -8.22,3.511 -12.3,6.019 v -56.078 h -38.67 v 159.098 h 38.67 v -9.887 c 3.87,3.367 8.15,6.18 12.84,8.438 4.69,2.25 11.05,3.378 19.07,3.378 7.95,0 15.75,-1.968 23.41,-5.91 7.67,-3.929 13.97,-10.078 18.91,-18.429 4.94,-8.34 7.41,-18.84 7.41,-31.52" />
            <path
               inkscape:connector-curvature="0"
               id="path642"
               style="fill:#ffffff;fill-opacity:1;fill-rule:nonzero;stroke:none"
               d="M 938.418,465.359 H 826.16 V 614.25 h 110.434 v -29.871 h -65.531 v -27.277 h 62.523 v -29.973 h -62.523 v -31.797 h 67.355 v -29.973" />
            <path
               inkscape:connector-curvature="0"
               id="path644"
               style="fill:#ffffff;fill-opacity:1;fill-rule:nonzero;stroke:none"
               d="m 1077.31,465.359 h -38.67 v 15.582 c -5.46,-5.871 -11.18,-10.269 -17.18,-13.16 -6,-2.91 -13.19,-4.351 -21.597,-4.351 -16.5,0 -27.175,4.808 -32.031,14.449 -4.859,9.633 -7.285,20.5 -7.285,32.601 v 64.239 h 38.672 v -59.09 c 0,-5.938 0.991,-11.149 2.961,-15.617 1.98,-4.481 6.27,-6.723 12.87,-6.723 5.68,0 10.16,1.609 13.47,4.832 3.3,3.231 6.68,7.348 10.12,12.359 v 64.239 h 38.67 v -109.36" />
            <path
               inkscape:connector-curvature="0"
               id="path646"
               style="fill:#ffffff;fill-opacity:1;fill-rule:nonzero;stroke:none"
               d="m 1198.27,568.809 -14.29,-38.778 c -5.87,5.59 -11.81,8.379 -17.83,8.379 -5.44,0 -10.15,-1.851 -14.12,-5.531 -3.98,-3.688 -7.79,-10.52 -11.44,-20.469 v -47.051 h -38.68 v 109.36 h 38.68 v -26.43 c 2.43,6.512 6.72,12.871 12.89,19.063 6.15,6.199 13.39,9.296 21.7,9.296 4.36,0 8.17,-0.636 11.44,-1.929 3.25,-1.289 7.14,-3.258 11.65,-5.91" />
            <path
               inkscape:connector-curvature="0"
               id="path648"
               style="fill:#ffffff;fill-opacity:1;fill-rule:nonzero;stroke:none"
               d="m 1281.2,520.148 c 0,8.661 -1.88,15.454 -5.64,20.352 -3.76,4.91 -9.22,7.359 -16.38,7.359 -7.09,0 -12.51,-2.449 -16.27,-7.359 -3.76,-4.898 -5.64,-11.691 -5.64,-20.352 0,-8.597 1.89,-15.398 5.69,-20.41 3.79,-5.008 9.2,-7.519 16.22,-7.519 7.16,0 12.62,2.492 16.38,7.461 3.76,4.98 5.64,11.8 5.64,20.468 z m 40.71,0 c 0,-10.886 -2.36,-20.589 -7.09,-29.109 -4.72,-8.527 -11.8,-15.258 -21.21,-20.199 -9.42,-4.942 -20.9,-7.41 -34.43,-7.41 -13.54,0 -25.01,2.468 -34.43,7.41 -9.42,4.941 -16.47,11.672 -21.16,20.199 -4.69,8.52 -7.04,18.223 -7.04,29.109 0,8.231 1.31,15.723 3.92,22.454 2.62,6.73 6.59,12.687 11.93,17.878 5.33,5.192 11.9,9.192 19.71,11.981 7.8,2.789 16.83,4.187 27.07,4.187 10.31,0 19.42,-1.418 27.34,-4.238 7.91,-2.832 14.46,-6.789 19.66,-11.871 5.19,-5.09 9.11,-11.027 11.76,-17.828 2.65,-6.813 3.97,-14.332 3.97,-22.563" />
            <path
               inkscape:connector-curvature="0"
               id="path650"
               style="fill:#ffffff;fill-opacity:1;fill-rule:nonzero;stroke:none"
               d="m 1421.39,519.93 c 0,6.59 -1.04,11.941 -3.12,16.058 -2.08,4.121 -4.76,7.094 -8.06,8.922 -3.29,1.82 -6.69,2.738 -10.2,2.738 -4.59,0 -8.34,-0.738 -11.28,-2.207 -2.94,-1.472 -5.69,-3.312 -8.27,-5.531 v -41.789 c 1.36,-0.711 2.81,-1.519 4.35,-2.41 1.54,-0.902 3.08,-1.672 4.62,-2.313 1.54,-0.648 3.18,-1.179 4.94,-1.609 1.75,-0.43 3.63,-0.648 5.64,-0.648 6.08,0 11.17,2.578 15.25,7.738 4.09,5.152 6.13,12.172 6.13,21.051 z m 40.71,0.859 c 0,-7.301 -1.04,-14.348 -3.12,-21.16 -2.08,-6.809 -5.24,-12.938 -9.5,-18.43 -4.27,-5.469 -9.74,-9.801 -16.44,-12.988 -6.7,-3.191 -14.49,-4.781 -23.36,-4.781 -7.17,0 -12.8,0.75 -16.92,2.25 -4.12,1.511 -8.22,3.511 -12.3,6.019 v -56.078 h -38.67 v 159.098 h 38.67 v -9.887 c 3.87,3.367 8.14,6.18 12.84,8.438 4.68,2.25 11.04,3.378 19.06,3.378 7.95,0 15.76,-1.968 23.42,-5.91 7.66,-3.929 13.97,-10.078 18.91,-18.429 4.94,-8.34 7.41,-18.84 7.41,-31.52" />
            <path
               inkscape:connector-curvature="0"
               id="path652"
               style="fill:#ffffff;fill-opacity:1;fill-rule:nonzero;stroke:none"
               d="m 1558.03,529.809 c 0,7.031 -1.74,12.621 -5.21,16.82 -3.48,4.18 -8.47,6.281 -14.99,6.281 -6.44,0 -11.65,-2.129 -15.63,-6.398 -3.97,-4.25 -5.96,-9.821 -5.96,-16.703 z m 36.31,-19.118 h -77.03 c 1.51,-6.66 5.19,-12.101 11.07,-16.32 5.87,-4.23 12.53,-6.34 19.98,-6.34 13.03,0 27.43,3.649 43.18,10.949 v -23.949 c -5.66,-2.941 -12.51,-5.609 -20.57,-8.011 -8.05,-2.391 -18.31,-3.59 -30.77,-3.59 -13.47,0 -24.93,2.511 -34.38,7.519 -9.45,5.012 -16.53,11.813 -21.22,20.41 -4.69,8.59 -7.03,18.332 -7.03,29.223 0,10.738 2.34,20.348 7.03,28.84 4.69,8.476 11.77,15.137 21.22,19.976 9.45,4.832 20.91,7.25 34.38,7.25 8.87,0 17.45,-1.91 25.72,-5.738 8.27,-3.84 15.08,-10.101 20.41,-18.808 5.34,-8.692 8.01,-19.922 8.01,-33.672 v -7.739" />
            <path
               inkscape:connector-curvature="0"
               id="path654"
               style="fill:#ffffff;fill-opacity:1;fill-rule:nonzero;stroke:none"
               d="m 1672.97,491.789 v 25.891 c -9.17,-3.719 -15.87,-7.071 -20.09,-10.051 -4.23,-2.969 -6.34,-7 -6.34,-12.078 0,-3.66 1.06,-6.449 3.17,-8.379 2.11,-1.942 4.57,-2.902 7.36,-2.902 2.65,0 5.28,0.73 7.9,2.199 2.61,1.472 5.27,3.242 8,5.32 z m 53.82,-20.949 c -5.66,-2.219 -10.89,-4.008 -15.69,-5.371 -4.8,-1.36 -10.56,-2.039 -17.29,-2.039 -6.38,0 -10.82,1.129 -13.32,3.379 -2.51,2.261 -4.3,5 -5.37,8.222 -4.16,-3.371 -8.78,-6.14 -13.86,-8.32 -5.09,-2.191 -11.75,-3.281 -19.98,-3.281 -7.95,0 -14.38,1.371 -19.28,4.14 -4.91,2.75 -8.35,6.231 -10.32,10.41 -1.97,4.2 -2.95,8.5 -2.95,12.95 0,6.73 1.7,12.3 5.1,16.699 3.4,4.41 7.97,8 13.7,10.801 5.73,2.789 13.32,5.691 22.77,8.699 5.37,1.723 9.44,3.031 12.2,3.91 2.75,0.902 4.81,1.609 6.17,2.102 1.36,0.5 2.79,1.148 4.3,1.941 0,5.297 -1.08,9.449 -3.22,12.457 -2.15,3.012 -6.81,4.512 -13.97,4.512 -8.45,0 -16.29,-1.86 -23.52,-5.59 -7.24,-3.723 -13.86,-8.52 -19.88,-14.391 v 29.649 c 4.8,3.441 9.99,6.25 15.58,8.429 5.58,2.184 11.42,3.813 17.51,4.891 6.08,1.07 12.24,1.609 18.48,1.609 15.82,0 27.72,-3.066 35.71,-9.179 7.99,-6.129 11.98,-14.559 11.98,-25.297 v -42.223 c 0,-4.008 0.38,-7 1.13,-8.961 0.75,-1.976 2.13,-2.957 4.13,-2.957 2.44,0 5.73,1.028 9.89,3.11 V 470.84" />
            <path
               inkscape:connector-curvature="0"
               id="path656"
               style="fill:#ffffff;fill-opacity:1;fill-rule:nonzero;stroke:none"
               d="m 1858.81,465.359 h -38.67 v 58.981 c 0,6.012 -0.99,11.262 -2.96,15.73 -1.97,4.481 -6.28,6.719 -12.94,6.719 -3.16,0 -5.93,-0.59 -8.33,-1.777 -2.4,-1.172 -4.55,-2.703 -6.44,-4.563 -1.9,-1.867 -3.49,-3.648 -4.78,-5.367 -1.29,-1.723 -2.62,-3.551 -3.98,-5.48 v -64.243 h -38.67 v 109.36 h 38.67 v -15.688 c 6.09,6.52 12.2,11.09 18.32,13.688 6.12,2.621 12.94,3.929 20.46,3.929 26.21,0 39.32,-15.679 39.32,-47.046 v -64.243" />
            <path
               inkscape:connector-curvature="0"
               id="path658"
               style="fill:#ffffff;fill-opacity:1;fill-rule:nonzero;stroke:none"
               d="m 2036.81,567.199 c 0,6.871 -2.26,11.672 -6.77,14.391 -4.51,2.73 -11.86,4.082 -22.02,4.082 h -9.46 v -35.883 h 9.67 c 10.96,0 18.46,1.211 22.51,3.602 4.04,2.398 6.07,7 6.07,13.808 z m 61.01,-101.84 h -48.23 l -11.71,26.43 c -4.3,9.672 -8.16,16.742 -11.6,21.211 -3.44,4.48 -6.79,7.34 -10.04,8.59 -3.27,1.262 -7.47,1.89 -12.63,1.89 h -5.05 v -58.121 h -44.9 V 614.25 h 76.38 c 12.31,0 22.41,-2.512 30.29,-7.52 7.88,-5.011 13.55,-11.109 17.03,-18.261 3.47,-7.16 5.21,-13.969 5.21,-20.41 0,-7.52 -1.45,-13.879 -4.35,-19.071 -2.9,-5.187 -5.96,-8.968 -9.19,-11.328 -3.22,-2.371 -6.84,-4.621 -10.85,-6.769 4.8,-2.789 8.76,-6.102 11.87,-9.942 3.12,-3.828 7.36,-11.578 12.73,-23.25 l 15.04,-32.34" />
            <path
               inkscape:connector-curvature="0"
               id="path660"
               style="fill:#ffffff;fill-opacity:1;fill-rule:nonzero;stroke:none"
               d="m 2184.62,529.809 c 0,7.031 -1.74,12.621 -5.21,16.82 -3.48,4.18 -8.47,6.281 -14.99,6.281 -6.44,0 -11.65,-2.129 -15.63,-6.398 -3.97,-4.25 -5.96,-9.821 -5.96,-16.703 z m 36.31,-19.118 h -77.02 c 1.5,-6.66 5.19,-12.101 11.06,-16.32 5.87,-4.23 12.53,-6.34 19.98,-6.34 13.03,0 27.43,3.649 43.18,10.949 v -23.949 c -5.65,-2.941 -12.51,-5.609 -20.57,-8.011 -8.05,-2.391 -18.31,-3.59 -30.77,-3.59 -13.47,0 -24.92,2.511 -34.38,7.519 -9.45,5.012 -16.53,11.813 -21.21,20.41 -4.7,8.59 -7.04,18.332 -7.04,29.223 0,10.738 2.34,20.348 7.04,28.84 4.68,8.476 11.76,15.137 21.21,19.976 9.46,4.832 20.91,7.25 34.38,7.25 8.87,0 17.45,-1.91 25.72,-5.738 8.28,-3.84 15.08,-10.101 20.41,-18.808 5.34,-8.692 8.01,-19.922 8.01,-33.672 v -7.739" />
            <path
               inkscape:connector-curvature="0"
               id="path662"
               style="fill:#ffffff;fill-opacity:1;fill-rule:nonzero;stroke:none"
               d="m 2307.19,532.93 c 0,5.519 -1.89,9.929 -5.64,13.269 -3.77,3.321 -7.97,4.992 -12.62,4.992 -5.95,0 -10.62,-2 -14.02,-6.011 -3.41,-4.02 -5.11,-8.239 -5.11,-12.68 0,-3.078 0.74,-5.949 2.2,-8.59 1.48,-2.648 3.56,-4.781 6.23,-6.398 2.7,-1.602 5.9,-2.41 9.62,-2.41 5.59,0 10.21,1.757 13.86,5.257 3.65,3.512 5.48,7.7 5.48,12.571 z m 7.73,-87.981 c 0,4.801 -2.56,7.891 -7.68,9.301 -5.12,1.379 -10.4,2.09 -15.84,2.09 -8.96,0 -15.41,-0.949 -19.4,-2.852 -3.96,-1.898 -5.96,-4.929 -5.96,-9.078 0,-8.16 8.24,-12.238 24.71,-12.238 7.38,0 13.25,1.047 17.62,3.168 4.36,2.109 6.55,5.308 6.55,9.609 z m 35.02,106.461 h -19.12 c 6.73,-5.871 10.1,-13.07 10.1,-21.601 0,-4.508 -0.95,-8.84 -2.84,-12.989 -1.91,-4.148 -4.7,-7.851 -8.38,-11.07 -3.69,-3.219 -8.24,-5.859 -13.66,-7.891 -5.4,-2.05 -11.58,-3.281 -18.52,-3.711 -8.96,-0.359 -13.43,-2.75 -13.43,-7.199 0,-1.719 0.58,-2.969 1.72,-3.758 1.14,-0.793 2.95,-1.371 5.43,-1.769 2.46,-0.391 6.64,-0.84 12.51,-1.34 6.66,-0.582 12.85,-1.57 18.58,-3.012 5.74,-1.441 11.07,-4.441 16.01,-9.019 4.94,-4.582 7.41,-11.141 7.41,-19.66 0,-6.809 -1.84,-12.821 -5.53,-18.051 -3.69,-5.219 -9.65,-9.301 -17.89,-12.238 -8.23,-2.942 -19.12,-4.411 -32.65,-4.411 -19.48,0 -33.79,2.618 -42.91,7.84 -9.14,5.231 -13.7,12.207 -13.7,20.949 0,2.36 0.59,5.09 1.76,8.161 1.2,3.078 3.7,6.058 7.52,8.918 3.84,2.863 9.41,4.8 16.71,5.8 -2.58,0.93 -4.79,2.743 -6.66,5.43 -1.86,2.68 -2.79,5.492 -2.79,8.43 0,3.801 1.31,7.562 3.92,11.281 2.61,3.719 6.86,6.121 12.73,7.199 -8.16,2.141 -15.22,6.192 -21.16,12.133 -5.95,5.949 -8.92,13.648 -8.92,23.098 0,7.16 1.38,13.429 4.14,18.8 2.76,5.372 6.56,9.731 11.44,13.102 4.87,3.367 10.53,5.859 16.97,7.457 6.45,1.633 13.5,2.43 21.16,2.43 h 60.05 V 551.41" />
            <path
               inkscape:connector-curvature="0"
               id="path664"
               style="fill:#ffffff;fill-opacity:1;fill-rule:nonzero;stroke:none"
               d="m 2401.4,599.961 c 0,-4.512 -1.61,-8.34 -4.84,-11.492 -3.22,-3.16 -7.05,-4.731 -11.49,-4.731 -3.01,0 -5.75,0.711 -8.21,2.153 -2.48,1.429 -4.43,3.379 -5.86,5.859 -1.44,2.461 -2.15,5.199 -2.15,8.211 0,4.437 1.57,8.269 4.72,11.5 3.16,3.219 6.99,4.828 11.5,4.828 4.44,0 8.27,-1.609 11.49,-4.828 3.23,-3.231 4.84,-7.063 4.84,-11.5 z m 3.11,-134.602 h -38.78 v 109.36 h 38.78 v -109.36" />
            <path
               inkscape:connector-curvature="0"
               id="path666"
               style="fill:#ffffff;fill-opacity:1;fill-rule:nonzero;stroke:none"
               d="m 2511.18,520.148 c 0,8.661 -1.87,15.454 -5.64,20.352 -3.75,4.91 -9.22,7.359 -16.38,7.359 -7.09,0 -12.51,-2.449 -16.28,-7.359 -3.75,-4.898 -5.63,-11.691 -5.63,-20.352 0,-8.597 1.89,-15.398 5.69,-20.41 3.8,-5.008 9.2,-7.519 16.22,-7.519 7.16,0 12.63,2.492 16.38,7.461 3.77,4.98 5.64,11.8 5.64,20.468 z m 40.71,0 c 0,-10.886 -2.36,-20.589 -7.09,-29.109 -4.72,-8.527 -11.79,-15.258 -21.22,-20.199 -9.41,-4.942 -20.88,-7.41 -34.42,-7.41 -13.53,0 -25.01,2.468 -34.42,7.41 -9.43,4.941 -16.48,11.672 -21.18,20.199 -4.68,8.52 -7.03,18.223 -7.03,29.109 0,8.231 1.31,15.723 3.93,22.454 2.61,6.73 6.58,12.687 11.91,17.878 5.34,5.192 11.92,9.192 19.72,11.981 7.8,2.789 16.83,4.187 27.07,4.187 10.31,0 19.42,-1.418 27.33,-4.238 7.92,-2.832 14.48,-6.789 19.67,-11.871 5.19,-5.09 9.11,-11.027 11.76,-17.828 2.65,-6.813 3.97,-14.332 3.97,-22.563" />
            <path
               inkscape:connector-curvature="0"
               id="path668"
               style="fill:#ffffff;fill-opacity:1;fill-rule:nonzero;stroke:none"
               d="m 2688.75,465.359 h -38.67 v 58.981 c 0,6.012 -0.99,11.262 -2.95,15.73 -1.97,4.481 -6.29,6.719 -12.95,6.719 -3.15,0 -5.93,-0.59 -8.32,-1.777 -2.4,-1.172 -4.55,-2.703 -6.45,-4.563 -1.9,-1.867 -3.49,-3.648 -4.78,-5.367 -1.29,-1.723 -2.62,-3.551 -3.98,-5.48 v -64.243 h -38.67 v 109.36 h 38.67 v -15.688 c 6.09,6.52 12.2,11.09 18.31,13.688 6.14,2.621 12.95,3.929 20.47,3.929 26.21,0 39.32,-15.679 39.32,-47.046 v -64.243" />
            <path
               inkscape:connector-curvature="0"
               id="path670"
               style="fill:#ffffff;fill-opacity:1;fill-rule:nonzero;stroke:none"
               d="m 2771.57,491.789 v 25.891 c -9.17,-3.719 -15.86,-7.071 -20.09,-10.051 -4.22,-2.969 -6.33,-7 -6.33,-12.078 0,-3.66 1.05,-6.449 3.16,-8.379 2.12,-1.942 4.57,-2.902 7.36,-2.902 2.65,0 5.29,0.73 7.89,2.199 2.62,1.472 5.29,3.242 8.01,5.32 z m 53.82,-20.949 c -5.65,-2.219 -10.89,-4.008 -15.68,-5.371 -4.8,-1.36 -10.57,-2.039 -17.3,-2.039 -6.37,0 -10.81,1.129 -13.32,3.379 -2.51,2.261 -4.3,5 -5.37,8.222 -4.15,-3.371 -8.77,-6.14 -13.86,-8.32 -5.08,-2.191 -11.74,-3.281 -19.98,-3.281 -7.95,0 -14.37,1.371 -19.28,4.14 -4.91,2.75 -8.34,6.231 -10.32,10.41 -1.96,4.2 -2.95,8.5 -2.95,12.95 0,6.73 1.7,12.3 5.1,16.699 3.41,4.41 7.97,8 13.7,10.801 5.74,2.789 13.32,5.691 22.78,8.699 5.37,1.723 9.43,3.031 12.19,3.91 2.76,0.902 4.82,1.609 6.18,2.102 1.35,0.5 2.79,1.148 4.29,1.941 0,5.297 -1.07,9.449 -3.22,12.457 -2.15,3.012 -6.81,4.512 -13.97,4.512 -8.44,0 -16.28,-1.86 -23.52,-5.59 -7.24,-3.723 -13.86,-8.52 -19.87,-14.391 v 29.649 c 4.79,3.441 9.99,6.25 15.57,8.429 5.59,2.184 11.43,3.813 17.51,4.891 6.09,1.07 12.25,1.609 18.48,1.609 15.83,0 27.73,-3.066 35.72,-9.179 7.98,-6.129 11.97,-14.559 11.97,-25.297 v -42.223 c 0,-4.008 0.38,-7 1.14,-8.961 0.74,-1.976 2.13,-2.957 4.13,-2.957 2.43,0 5.73,1.028 9.88,3.11 V 470.84" />
            <path
               inkscape:connector-curvature="0"
               id="path672"
               style="fill:#ffffff;fill-opacity:1;fill-rule:nonzero;stroke:none"
               d="m 2839.46,465.359 h 38.7773 V 614.25 H 2839.46 Z" />
            <path
               inkscape:connector-curvature="0"
               id="path674"
               style="fill:#ffffff;fill-opacity:1;fill-rule:nonzero;stroke:none"
               d="m 912.102,279.051 c 0,12.097 -2.313,21.551 -6.93,28.301 -4.621,6.777 -10.172,11.296 -16.652,13.597 -6.485,2.289 -13.09,3.43 -19.821,3.43 h -19.121 v -88.188 h 19.121 c 11.746,0 21.914,2.789 30.512,8.379 8.594,5.59 12.891,17.078 12.891,34.481 z m 45.652,-1.93 c 0,-15.25 -2.777,-27.5 -8.324,-36.742 -5.551,-9.238 -12.086,-16.719 -19.606,-22.449 -10.676,-8.379 -25.605,-12.571 -44.797,-12.571 H 804.68 V 354.25 h 61.875 c 9.304,0 17.273,-0.488 23.898,-1.449 6.621,-0.969 12.582,-2.332 17.887,-4.082 5.297,-1.758 9.808,-3.731 13.535,-5.918 3.723,-2.18 7.051,-4.52 9.988,-7.031 5.086,-4.149 9.543,-9.059 13.375,-14.719 3.828,-5.653 6.875,-12.199 9.133,-19.653 2.254,-7.449 3.383,-15.539 3.383,-24.277" />
            <path
               inkscape:connector-curvature="0"
               id="path676"
               style="fill:#ffffff;fill-opacity:1;fill-rule:nonzero;stroke:none"
               d="m 1054.97,269.809 c 0,7.031 -1.74,12.621 -5.21,16.82 -3.48,4.18 -8.47,6.281 -14.98,6.281 -6.45,0 -11.66,-2.129 -15.63,-6.398 -3.98,-4.25 -5.97,-9.821 -5.97,-16.703 z m 36.31,-19.118 h -77.02 c 1.5,-6.66 5.19,-12.101 11.06,-16.32 5.87,-4.23 12.53,-6.34 19.98,-6.34 13.03,0 27.43,3.649 43.19,10.949 v -23.949 c -5.66,-2.941 -12.52,-5.609 -20.57,-8.011 -8.06,-2.391 -18.32,-3.59 -30.78,-3.59 -13.47,0 -24.92,2.511 -34.38,7.519 -9.447,5.012 -16.526,11.813 -21.213,20.41 -4.692,8.59 -7.035,18.332 -7.035,29.223 0,10.738 2.343,20.348 7.035,28.84 4.687,8.476 11.766,15.137 21.213,19.976 9.46,4.832 20.91,7.25 34.38,7.25 8.88,0 17.45,-1.91 25.73,-5.738 8.27,-3.84 15.07,-10.101 20.41,-18.808 5.33,-8.692 8,-19.922 8,-33.672 v -7.739" />
            <path
               inkscape:connector-curvature="0"
               id="path678"
               style="fill:#ffffff;fill-opacity:1;fill-rule:nonzero;stroke:none"
               d="m 1225.56,314.719 -49.74,-109.36 h -28.57 l -48.67,109.36 h 41.58 l 22.66,-57.258 25.14,57.258 h 37.6" />
            <path
               inkscape:connector-curvature="0"
               id="path680"
               style="fill:#ffffff;fill-opacity:1;fill-rule:nonzero;stroke:none"
               d="m 1311.28,269.809 c 0,7.031 -1.74,12.621 -5.21,16.82 -3.48,4.18 -8.47,6.281 -14.99,6.281 -6.44,0 -11.65,-2.129 -15.63,-6.398 -3.97,-4.25 -5.96,-9.821 -5.96,-16.703 z m 36.31,-19.118 h -77.02 c 1.5,-6.66 5.19,-12.101 11.06,-16.32 5.87,-4.23 12.53,-6.34 19.98,-6.34 13.03,0 27.43,3.649 43.18,10.949 v -23.949 c -5.65,-2.941 -12.51,-5.609 -20.57,-8.011 -8.05,-2.391 -18.31,-3.59 -30.77,-3.59 -13.47,0 -24.92,2.511 -34.38,7.519 -9.45,5.012 -16.53,11.813 -21.21,20.41 -4.7,8.59 -7.04,18.332 -7.04,29.223 0,10.738 2.34,20.348 7.04,28.84 4.68,8.476 11.76,15.137 21.21,19.976 9.46,4.832 20.91,7.25 34.38,7.25 8.87,0 17.45,-1.91 25.72,-5.738 8.28,-3.84 15.08,-10.101 20.41,-18.808 5.34,-8.692 8.01,-19.922 8.01,-33.672 v -7.739" />
            <path
               inkscape:connector-curvature="0"
               id="path682"
               style="fill:#ffffff;fill-opacity:1;fill-rule:nonzero;stroke:none"
               d="m 1368.54,205.359 h 38.7695 V 354.25 H 1368.54 Z" />
            <path
               inkscape:connector-curvature="0"
               id="path684"
               style="fill:#ffffff;fill-opacity:1;fill-rule:nonzero;stroke:none"
               d="m 1510.87,260.148 c 0,8.661 -1.88,15.454 -5.64,20.352 -3.76,4.91 -9.22,7.359 -16.38,7.359 -7.09,0 -12.52,-2.449 -16.28,-7.359 -3.76,-4.898 -5.64,-11.691 -5.64,-20.352 0,-8.597 1.9,-15.398 5.7,-20.41 3.79,-5.008 9.2,-7.519 16.22,-7.519 7.16,0 12.62,2.492 16.38,7.461 3.76,4.98 5.64,11.8 5.64,20.468 z m 40.71,0 c 0,-10.886 -2.36,-20.589 -7.09,-29.109 -4.72,-8.527 -11.8,-15.258 -21.21,-20.199 -9.42,-4.942 -20.9,-7.41 -34.43,-7.41 -13.54,0 -25.02,2.468 -34.43,7.41 -9.42,4.941 -16.48,11.672 -21.16,20.199 -4.7,8.52 -7.04,18.223 -7.04,29.109 0,8.231 1.3,15.723 3.92,22.454 2.61,6.73 6.59,12.687 11.93,17.878 5.33,5.192 11.9,9.192 19.71,11.981 7.8,2.789 16.82,4.187 27.07,4.187 10.31,0 19.42,-1.418 27.34,-4.238 7.91,-2.832 14.46,-6.789 19.65,-11.871 5.2,-5.09 9.12,-11.027 11.77,-17.828 2.64,-6.813 3.97,-14.332 3.97,-22.563" />
            <path
               inkscape:connector-curvature="0"
               id="path686"
               style="fill:#ffffff;fill-opacity:1;fill-rule:nonzero;stroke:none"
               d="m 1651.05,259.93 c 0,6.59 -1.04,11.941 -3.11,16.058 -2.08,4.121 -4.77,7.094 -8.06,8.922 -3.29,1.82 -6.7,2.738 -10.2,2.738 -4.59,0 -8.35,-0.738 -11.28,-2.207 -2.94,-1.472 -5.69,-3.312 -8.27,-5.531 v -41.789 c 1.35,-0.711 2.8,-1.519 4.35,-2.41 1.54,-0.902 3.07,-1.672 4.62,-2.313 1.53,-0.648 3.18,-1.179 4.94,-1.609 1.75,-0.43 3.63,-0.648 5.64,-0.648 6.08,0 11.17,2.578 15.25,7.738 4.08,5.152 6.12,12.172 6.12,21.051 z m 40.72,0.859 c 0,-7.301 -1.04,-14.348 -3.12,-21.16 -2.08,-6.809 -5.25,-12.938 -9.5,-18.43 -4.27,-5.469 -9.75,-9.801 -16.44,-12.988 -6.7,-3.191 -14.49,-4.781 -23.36,-4.781 -7.17,0 -12.81,0.75 -16.92,2.25 -4.12,1.511 -8.22,3.511 -12.3,6.019 v -56.078 h -38.67 v 159.098 h 38.67 v -9.887 c 3.86,3.367 8.14,6.18 12.83,8.438 4.69,2.25 11.05,3.378 19.07,3.378 7.95,0 15.75,-1.968 23.42,-5.91 7.66,-3.929 13.96,-10.078 18.91,-18.429 4.94,-8.34 7.41,-18.84 7.41,-31.52" />
            <path
               inkscape:connector-curvature="0"
               id="path688"
               style="fill:#ffffff;fill-opacity:1;fill-rule:nonzero;stroke:none"
               d="m 1906.72,205.359 h -38.67 v 58.332 c 0,7.739 -1.28,13.52 -3.82,17.348 -2.54,3.832 -6.57,5.75 -12.08,5.75 -5.37,0 -9.78,-1.629 -13.21,-4.891 -3.44,-3.257 -6.88,-7.359 -10.32,-12.296 v -64.243 h -38.67 v 58.332 c 0,7.368 -1.18,13.071 -3.54,17.079 -2.37,4.019 -6.56,6.019 -12.57,6.019 -2.87,0 -5.5,-0.578 -7.9,-1.719 -2.4,-1.14 -4.35,-2.429 -5.85,-3.871 -1.51,-1.429 -3.33,-3.539 -5.48,-6.34 -2.15,-2.789 -3.51,-4.55 -4.08,-5.257 v -64.243 h -38.67 v 109.36 h 38.67 v -15.688 c 5.8,6.168 11.71,10.641 17.72,13.43 6.02,2.789 12.96,4.187 20.84,4.187 3.72,0 7.27,-0.339 10.64,-1.019 3.36,-0.68 6.67,-1.84 9.93,-3.488 3.26,-1.653 6.21,-3.911 8.87,-6.77 2.64,-2.859 4.76,-6.191 6.33,-9.992 6.23,7.019 12.69,12.32 19.39,15.902 6.7,3.578 14.41,5.367 23.15,5.367 8.74,0 16.06,-1.757 21.97,-5.257 5.91,-3.512 10.27,-8.582 13.11,-15.211 2.82,-6.621 4.24,-14.66 4.24,-24.11 v -66.711" />
            <path
               inkscape:connector-curvature="0"
               id="path690"
               style="fill:#ffffff;fill-opacity:1;fill-rule:nonzero;stroke:none"
               d="m 2005.55,269.809 c 0,7.031 -1.74,12.621 -5.21,16.82 -3.48,4.18 -8.47,6.281 -14.99,6.281 -6.44,0 -11.65,-2.129 -15.63,-6.398 -3.97,-4.25 -5.96,-9.821 -5.96,-16.703 z m 36.31,-19.118 h -77.03 c 1.51,-6.66 5.19,-12.101 11.07,-16.32 5.87,-4.23 12.53,-6.34 19.98,-6.34 13.03,0 27.43,3.649 43.18,10.949 v -23.949 c -5.66,-2.941 -12.51,-5.609 -20.57,-8.011 -8.06,-2.391 -18.31,-3.59 -30.78,-3.59 -13.46,0 -24.92,2.511 -34.37,7.519 -9.45,5.012 -16.53,11.813 -21.22,20.41 -4.69,8.59 -7.03,18.332 -7.03,29.223 0,10.738 2.34,20.348 7.03,28.84 4.69,8.476 11.77,15.137 21.22,19.976 9.45,4.832 20.91,7.25 34.37,7.25 8.88,0 17.46,-1.91 25.73,-5.738 8.27,-3.84 15.08,-10.101 20.41,-18.808 5.33,-8.692 8.01,-19.922 8.01,-33.672 v -7.739" />
            <path
               inkscape:connector-curvature="0"
               id="path692"
               style="fill:#ffffff;fill-opacity:1;fill-rule:nonzero;stroke:none"
               d="m 2177.64,205.359 h -38.68 v 58.981 c 0,6.012 -0.98,11.262 -2.95,15.73 -1.97,4.481 -6.28,6.719 -12.94,6.719 -3.16,0 -5.93,-0.59 -8.33,-1.777 -2.4,-1.172 -4.55,-2.703 -6.44,-4.563 -1.9,-1.867 -3.5,-3.648 -4.78,-5.367 -1.29,-1.723 -2.62,-3.551 -3.98,-5.48 v -64.243 h -38.67 v 109.36 h 38.67 v -15.688 c 6.09,6.52 12.19,11.09 18.32,13.688 6.12,2.621 12.94,3.929 20.46,3.929 26.21,0 39.32,-15.679 39.32,-47.046 v -64.243" />
            <path
               inkscape:connector-curvature="0"
               id="path694"
               style="fill:#ffffff;fill-opacity:1;fill-rule:nonzero;stroke:none"
               d="m 2287.1,211.699 c -4.01,-1.929 -9.54,-3.801 -16.6,-5.59 -7.05,-1.777 -13.8,-2.679 -20.25,-2.679 -27.86,0 -41.78,13.601 -41.78,40.82 v 43.609 h -17.51 v 6.77 l 51.88,52.851 h 4.41 v -32.761 h 36.95 v -26.86 h -36.95 V 252.84 c 0,-4.078 0.25,-7.371 0.75,-9.879 0.5,-2.512 1.91,-4.602 4.24,-6.289 2.33,-1.684 5.86,-2.524 10.58,-2.524 6.16,0 14.25,2.582 24.28,7.731 v -30.18" />
            <path
               inkscape:connector-curvature="0"
               id="path696"
               style="fill:#ffffff;fill-opacity:1;fill-rule:nonzero;stroke:none"
               d="m 2482.39,265.621 h -61.76 v -60.262 h -44.91 V 354.25 h 106.67 v -29.871 h -61.76 v -28.777 h 61.76 v -29.981" />
            <path
               inkscape:connector-curvature="0"
               id="path698"
               style="fill:#ffffff;fill-opacity:1;fill-rule:nonzero;stroke:none"
               d="m 2621.4,205.359 h -38.68 v 15.582 c -5.45,-5.871 -11.19,-10.269 -17.17,-13.16 -6,-2.91 -13.21,-4.351 -21.6,-4.351 -16.51,0 -27.18,4.808 -32.04,14.449 -4.85,9.633 -7.28,20.5 -7.28,32.601 v 64.239 h 38.67 v -59.09 c 0,-5.938 0.99,-11.149 2.96,-15.617 1.97,-4.481 6.27,-6.723 12.87,-6.723 5.67,0 10.17,1.609 13.47,4.832 3.3,3.231 6.68,7.348 10.12,12.359 v 64.239 h 38.68 v -109.36" />
            <path
               inkscape:connector-curvature="0"
               id="path700"
               style="fill:#ffffff;fill-opacity:1;fill-rule:nonzero;stroke:none"
               d="m 2762.98,205.359 h -38.67 v 58.981 c 0,6.012 -0.99,11.262 -2.95,15.73 -1.98,4.481 -6.29,6.719 -12.95,6.719 -3.16,0 -5.93,-0.59 -8.32,-1.777 -2.4,-1.172 -4.55,-2.703 -6.45,-4.563 -1.9,-1.867 -3.49,-3.648 -4.78,-5.367 -1.29,-1.723 -2.62,-3.551 -3.98,-5.48 v -64.243 h -38.67 v 109.36 h 38.67 v -15.688 c 6.09,6.52 12.2,11.09 18.31,13.688 6.14,2.621 12.95,3.929 20.47,3.929 26.21,0 39.32,-15.679 39.32,-47.046 v -64.243" />
            <path
               inkscape:connector-curvature="0"
               id="path702"
               style="fill:#ffffff;fill-opacity:1;fill-rule:nonzero;stroke:none"
               d="m 2863.1,240.172 v 41.777 c -4.52,2.512 -8.04,4.301 -10.58,5.371 -2.55,1.078 -5.54,1.621 -8.98,1.621 -6.08,0 -11.15,-2.582 -15.2,-7.742 -4.04,-5.16 -6.06,-12.179 -6.06,-21.051 0,-9.668 2.12,-16.699 6.39,-21.117 4.26,-4.39 9.22,-6.601 14.87,-6.601 4.66,0 8.42,0.73 11.28,2.211 2.87,1.461 5.63,3.308 8.28,5.531 z m 38.78,-34.813 h -38.78 v 9.879 c -4.09,-3.429 -8.4,-6.269 -12.94,-8.476 -4.55,-2.223 -10.84,-3.332 -18.86,-3.332 -7.95,0 -15.75,1.968 -23.42,5.91 -7.67,3.93 -13.96,10.07 -18.91,18.422 -4.94,8.34 -7.41,18.847 -7.41,31.527 0,9.949 1.87,19.27 5.59,27.992 3.72,8.688 9.56,15.77 17.51,21.207 7.95,5.442 17.68,8.16 29.22,8.16 7.16,0 12.96,-0.789 17.4,-2.359 4.44,-1.578 8.38,-3.59 11.82,-6.019 v 45.98 h 38.78 V 205.359" />
            <path
               inkscape:connector-curvature="0"
               id="path704"
               style="fill:#fff200;fill-opacity:1;fill-rule:nonzero;stroke:none"
               d="m 693.672,1886.91 27.355,20.82 -33.644,-0.32 -14.793,36.49 -11.379,-36.17 h -34.777 l 26.511,-20.5 -8.832,-31.33 28.215,16.49 31.035,-16.8 -9.691,31.32" />
            <path
               inkscape:connector-curvature="0"
               id="path706"
               style="fill:#fff200;fill-opacity:1;fill-rule:nonzero;stroke:none"
               d="m 1209.6,1855.29 -31.64,18.38 -28.62,-18.38 8.07,33.34 -26.91,18.78 33.75,0.88 13.27,37.21 13.26,-34.64 34.21,-1.31 -25.23,-20.04 9.84,-34.22" />
            <path
               inkscape:connector-curvature="0"
               id="path708"
               style="fill:#fff200;fill-opacity:1;fill-rule:nonzero;stroke:none"
               d="m 1106.15,1774.13 9.66,-31.63 -30.19,19.11 -29.61,-19.11 8.54,33.3 -25.91,20.27 34.47,1.68 12.22,35.05 13.42,-35.89 33.88,-0.57 -26.48,-22.21" />
            <path
               inkscape:connector-curvature="0"
               id="path710"
               style="fill:#fff200;fill-opacity:1;fill-rule:nonzero;stroke:none"
               d="m 827.125,1798.08 -26.285,-19.89 8.976,-33.97 -30.093,19.03 -29.282,-18.82 7.907,33.34 -25.637,19.01 34.598,0.22 12.171,35.63 13.047,-33.28 34.598,-1.27" />
            <path
               inkscape:connector-curvature="0"
               id="path712"
               style="fill:#fff200;fill-opacity:1;fill-rule:nonzero;stroke:none"
               d="m 1213.01,2155.73 -31.86,17.52 -29.28,-17.31 8.36,31.83 -25.65,19.66 33.97,1.72 12.83,35.46 12.61,-35.46 34.39,-0.64 -25.64,-21.58 10.27,-31.2" />
            <path
               inkscape:connector-curvature="0"
               id="path714"
               style="fill:#fff200;fill-opacity:1;fill-rule:nonzero;stroke:none"
               d="m 949.996,2301.26 -31,19.01 -30.355,-18.81 10.277,32.48 -26.254,21.15 34.371,1.27 12.168,35.68 12.625,-35.68 c 0,0 35.25,-0.63 34.617,-0.63 -0.664,0 -26.722,-20.52 -26.722,-20.52 l 10.273,-33.95" />
            <path
               inkscape:connector-curvature="0"
               id="path716"
               style="fill:#fff200;fill-opacity:1;fill-rule:nonzero;stroke:none"
               d="m 1103.4,2263.45 -31.65,17.73 -29.27,-17.73 9.84,32.47 -27.32,19.84 34.39,1.31 13.43,35.43 13.71,-35.85 32.46,-0.25 -26.29,-21.33 10.7,-31.62" />
            <path
               inkscape:connector-curvature="0"
               id="path718"
               style="fill:#fff200;fill-opacity:1;fill-rule:nonzero;stroke:none"
               d="m 1250.63,2005.45 -31.36,17.38 -29.92,-17.38 9.4,32.21 -26.22,20.5 34.2,0.29 13.42,35.91 12.26,-34.5 33.01,-0.26 -24.79,-21.67 10,-32.48" />
            <path
               inkscape:connector-curvature="0"
               id="path720"
               style="fill:#fff200;fill-opacity:1;fill-rule:nonzero;stroke:none"
               d="m 798.992,2256.57 -29.965,17.73 -30.742,-17.73 9.805,30.78 -26.027,21.58 34.601,0.64 12.606,36.09 12.382,-35.88 34.614,-0.63 -25.621,-17.96 8.347,-34.62" />
            <path
               inkscape:connector-curvature="0"
               id="path722"
               style="fill:#fff200;fill-opacity:1;fill-rule:nonzero;stroke:none"
               d="m 701.918,2155.94 -29.461,19.03 -29.93,-18.39 8.782,32.08 -26.075,19.59 33.516,0.9 13.285,35.69 13.031,-33.98 34.176,-0.64 -25.621,-20.07 8.297,-34.21" />
            <path
               inkscape:connector-curvature="0"
               id="path724"
               style="fill:#fff200;fill-opacity:1;fill-rule:nonzero;stroke:none"
               d="m 666.316,2005.45 -30.453,17.65 -30.773,-17.39 9.969,33.33 -25.641,18.56 32.203,0.85 13.352,35.91 13.988,-36.2 34.453,-0.28 -26.773,-18.84 9.675,-33.59" />
            <path
               inkscape:connector-curvature="0"
               id="path726"
               style="fill:#fff200;fill-opacity:1;fill-rule:nonzero;stroke:none"
               d="m 965.441,1701.5 -31.05,19.36 -30.207,-17.96 9.675,32.76 -27.082,19.08 34.504,2.29 12.832,34.46 12.223,-35.31 34.5,-0.56 -26.238,-19.96 10.843,-34.16" />
            <path
               inkscape:connector-curvature="0"
               id="path728"
               style="fill:none;stroke:#ffffff;stroke-width:10;stroke-linecap:butt;stroke-linejoin:miter;stroke-miterlimit:10;stroke-dasharray:none;stroke-opacity:1"
               d="m 253.707,1617.93 h 1347.43 v 854.945 H 253.707 Z" />
            <path
               inkscape:connector-curvature="0"
               id="path730"
               style="fill:#ffffff;fill-opacity:1;fill-rule:nonzero;stroke:none"
               d="m 442.543,1553.67 h 10.797 v -42.6 c 0,-5.76 -0.418,-10.11 -1.266,-13.04 -0.84,-2.94 -1.875,-5.38 -3.113,-7.34 -1.231,-1.95 -2.746,-3.7 -4.535,-5.24 -5.946,-5.12 -13.719,-7.68 -23.313,-7.68 -9.773,0 -17.617,2.54 -23.523,7.63 -1.793,1.57 -3.309,3.34 -4.539,5.29 -1.238,1.96 -2.254,4.34 -3.067,7.17 -0.8,2.83 -1.207,7.27 -1.207,13.32 v 42.49 h 10.797 v -42.6 c 0,-7.05 0.809,-11.96 2.418,-14.71 1.613,-2.76 4.063,-4.97 7.36,-6.63 3.293,-1.67 7.175,-2.5 11.656,-2.5 6.371,0 11.566,1.66 15.574,5 2.113,1.78 3.633,3.89 4.566,6.32 0.93,2.45 1.395,6.62 1.395,12.52 v 42.6" />
            <path
               inkscape:connector-curvature="0"
               id="path732"
               style="fill:#ffffff;fill-opacity:1;fill-rule:nonzero;stroke:none"
               d="m 527.836,1553.67 h 10.207 v -75.04 h -9.238 l -50.168,57.79 v -57.79 h -10.098 v 75.04 h 8.703 l 50.594,-58.28 v 58.28" />
            <path
               inkscape:connector-curvature="0"
               id="path734"
               style="fill:#ffffff;fill-opacity:1;fill-rule:nonzero;stroke:none"
               d="m 578.379,1544.1 h -13.43 v -55.8 h 13.75 c 5.371,0 9.543,0.37 12.516,1.1 2.973,0.74 5.457,1.66 7.437,2.8 1.993,1.12 3.809,2.51 5.453,4.16 5.297,5.37 7.95,12.16 7.95,20.36 0,8.05 -2.719,14.62 -8.164,19.71 -2.004,1.89 -4.305,3.45 -6.899,4.66 -2.597,1.22 -5.058,2.03 -7.387,2.43 -2.332,0.39 -6.07,0.58 -11.226,0.58 z m -24.168,-65.36 v 74.93 h 25.297 c 10.203,0 18.281,-1.53 24.222,-4.6 5.942,-3.05 10.668,-7.56 14.18,-13.5 3.512,-5.95 5.266,-12.43 5.266,-19.45 0,-5.01 -0.969,-9.81 -2.903,-14.39 -1.933,-4.58 -4.691,-8.61 -8.269,-12.08 -3.652,-3.59 -7.899,-6.29 -12.731,-8.12 -2.828,-1.11 -5.425,-1.85 -7.789,-2.22 -2.363,-0.38 -6.875,-0.57 -13.535,-0.57 h -23.738" />
            <path
               inkscape:connector-curvature="0"
               id="path736"
               style="fill:#ffffff;fill-opacity:1;fill-rule:nonzero;stroke:none"
               d="m 636.602,1553.67 h 42.539 v -9.57 h -31.797 v -22.87 h 30.722 v -9.62 h -30.722 v -23.31 h 32.816 v -9.56 h -43.558 v 74.93" />
            <path
               inkscape:connector-curvature="0"
               id="path738"
               style="fill:#ffffff;fill-opacity:1;fill-rule:nonzero;stroke:none"
               d="m 712.387,1511.99 h -10.043 v -23.8 h 10.582 c 5.875,0 9.855,0.46 11.945,1.37 2.102,0.92 3.781,2.33 5.051,4.27 1.273,1.93 1.91,4.01 1.91,6.23 0,2.29 -0.672,4.39 -2.019,6.29 -1.336,1.89 -3.247,3.31 -5.715,4.24 -2.473,0.93 -6.371,1.4 -11.711,1.4 z m -0.805,32.11 h -9.238 v -22.56 h 7.144 c 5.727,0 9.797,1.1 12.223,3.28 2.41,2.19 3.621,5.01 3.621,8.49 0,7.2 -4.586,10.79 -13.75,10.79 z m 5.426,-65.47 h -25.406 v 75.04 h 19.66 c 6.195,0 11.027,-0.84 14.5,-2.5 3.472,-1.67 6.125,-3.95 7.949,-6.87 1.824,-2.92 2.738,-6.3 2.738,-10.13 0,-7.37 -3.812,-12.66 -11.437,-15.85 5.476,-1.03 9.836,-3.29 13.074,-6.76 3.242,-3.47 4.863,-7.63 4.863,-12.46 0,-3.84 -0.984,-7.25 -2.953,-10.26 -1.969,-3.01 -4.859,-5.46 -8.68,-7.36 -3.804,-1.9 -8.582,-2.85 -14.308,-2.85" />
            <path
               inkscape:connector-curvature="0"
               id="path740"
               style="fill:#ffffff;fill-opacity:1;fill-rule:nonzero;stroke:none"
               d="m 784.094,1553.67 h 42.539 v -9.57 h -31.797 v -22.87 h 30.723 v -9.62 h -30.723 v -23.31 h 32.816 v -9.56 h -43.558 v 74.93" />
            <path
               inkscape:connector-curvature="0"
               id="path742"
               style="fill:#ffffff;fill-opacity:1;fill-rule:nonzero;stroke:none"
               d="m 934.672,1553.67 h 10.715 l -30.336,-75.36 h -2.36 l -24.539,61.02 -24.785,-61.02 h -2.304 l -30.243,75.36 h 10.825 l 20.679,-51.73 20.817,51.73 h 10.152 l 20.918,-51.73 20.461,51.73" />
            <path
               inkscape:connector-curvature="0"
               id="path744"
               style="fill:#ffffff;fill-opacity:1;fill-rule:nonzero;stroke:none"
               d="m 967.996,1544.53 h -3.223 v -23.68 h 4.082 c 5.446,0 9.176,0.47 11.204,1.4 2.019,0.92 3.593,2.33 4.726,4.21 1.121,1.88 1.692,4.02 1.692,6.42 0,2.36 -0.625,4.5 -1.883,6.42 -1.254,1.91 -3.016,3.27 -5.285,4.06 -2.278,0.78 -6.047,1.17 -11.313,1.17 z m -13.965,-65.9 v 75.04 h 18.801 c 7.594,0 13.613,-1.88 18.074,-5.64 4.453,-3.76 6.688,-8.85 6.688,-15.26 0,-4.36 -1.094,-8.14 -3.278,-11.32 -2.183,-3.2 -5.316,-5.58 -9.398,-7.15 2.395,-1.58 4.746,-3.72 7.035,-6.45 2.289,-2.72 5.512,-7.46 9.667,-14.24 2.61,-4.25 4.71,-7.46 6.29,-9.61 l 3.97,-5.37 h -12.782 l -3.274,4.94 c -0.105,0.19 -0.32,0.49 -0.644,0.92 l -2.09,2.96 -3.328,5.48 -3.594,5.86 c -2.219,3.08 -4.25,5.53 -6.094,7.35 -1.847,1.83 -3.515,3.14 -5,3.94 -1.488,0.81 -3.988,1.21 -7.5,1.21 h -2.801 v -32.66 h -10.742" />
            <path
               inkscape:connector-curvature="0"
               id="path746"
               style="fill:#ffffff;fill-opacity:1;fill-rule:nonzero;stroke:none"
               d="m 1050.82,1544.53 c -8.59,0 -15.65,-2.67 -21.19,-8.05 -5.53,-5.37 -8.3,-12.23 -8.3,-20.57 0,-8.1 2.78,-14.83 8.33,-20.2 5.55,-5.37 12.49,-8.05 20.84,-8.05 8.38,0 15.37,2.73 20.97,8.22 5.61,5.47 8.41,12.29 8.41,20.46 0,7.95 -2.8,14.64 -8.41,20.06 -5.6,5.43 -12.49,8.13 -20.65,8.13 z m -0.43,10.22 c 11.6,0 21.26,-3.68 28.98,-11.02 7.71,-7.34 11.57,-16.54 11.57,-27.61 0,-11.06 -3.89,-20.22 -11.68,-27.47 -7.79,-7.25 -17.61,-10.88 -29.46,-10.88 -11.31,0 -20.74,3.63 -28.28,10.88 -7.54,7.25 -11.31,16.34 -11.31,27.26 0,11.21 3.8,20.48 11.39,27.82 7.59,7.34 17.19,11.02 28.79,11.02" />
            <path
               inkscape:connector-curvature="0"
               id="path748"
               style="fill:#ffffff;fill-opacity:1;fill-rule:nonzero;stroke:none"
               d="m 1125.42,1544.22 h -11.11 v -23.48 h 11.76 c 4.37,0 7.73,1.03 10.1,3.09 2.36,2.06 3.54,5.01 3.54,8.84 0,7.69 -4.76,11.55 -14.29,11.55 z m -21.91,-65.59 v 75.14 h 23.79 c 7.17,0 12.88,-1.93 17.14,-5.8 4.26,-3.87 6.39,-9.05 6.39,-15.57 0,-4.37 -1.09,-8.24 -3.28,-11.6 -2.18,-3.37 -5.17,-5.81 -8.97,-7.33 -3.79,-1.53 -9.23,-2.29 -16.32,-2.29 h -7.95 v -32.55 h -10.8" />
            <path
               inkscape:connector-curvature="0"
               id="path750"
               style="fill:#ffffff;fill-opacity:1;fill-rule:nonzero;stroke:none"
               d="m 1160.18,1553.67 h 42.53 v -9.57 h -31.79 v -22.87 h 30.72 v -9.62 h -30.72 v -23.31 h 32.82 v -9.56 h -43.56 v 74.93" />
            <path
               inkscape:connector-curvature="0"
               id="path752"
               style="fill:#ffffff;fill-opacity:1;fill-rule:nonzero;stroke:none"
               d="m 1254.92,1510.43 -12.11,27.18 -11.23,-27.18 z m -15.78,43.67 h 7.54 l 33.65,-75.47 h -11 l -10,22.24 h -32.01 l -9.38,-22.24 h -11.04 l 32.24,75.47" />
            <path
               inkscape:connector-curvature="0"
               id="path754"
               style="fill:#ffffff;fill-opacity:1;fill-rule:nonzero;stroke:none"
               d="m 1288.65,1478.63 h 10.7422 v 75.043 H 1288.65 Z" />
            <path
               inkscape:connector-curvature="0"
               id="path756"
               style="fill:#ffffff;fill-opacity:1;fill-rule:nonzero;stroke:none"
               d="m 1340.32,1544.1 h -13.43 v -55.8 h 13.75 c 5.38,0 9.55,0.37 12.52,1.1 2.97,0.74 5.45,1.66 7.44,2.8 1.99,1.12 3.8,2.51 5.45,4.16 5.3,5.37 7.95,12.16 7.95,20.36 0,8.05 -2.72,14.62 -8.17,19.71 -2,1.89 -4.3,3.45 -6.89,4.66 -2.6,1.22 -5.06,2.03 -7.39,2.43 -2.33,0.39 -6.07,0.58 -11.23,0.58 z m -24.17,-65.36 v 74.93 h 25.3 c 10.21,0 18.28,-1.53 24.22,-4.6 5.95,-3.05 10.67,-7.56 14.18,-13.5 3.51,-5.95 5.27,-12.43 5.27,-19.45 0,-5.01 -0.97,-9.81 -2.9,-14.39 -1.94,-4.58 -4.7,-8.61 -8.27,-12.08 -3.66,-3.59 -7.9,-6.29 -12.73,-8.12 -2.83,-1.11 -5.43,-1.85 -7.79,-2.22 -2.37,-0.38 -6.88,-0.57 -13.54,-0.57 h -23.74" />
            <path
               inkscape:connector-curvature="0"
               id="path758"
               style="fill:#ffffff;fill-opacity:1;fill-rule:nonzero;stroke:none"
               d="m 1422.82,1544.1 h -13.43 v -55.8 h 13.75 c 5.38,0 9.55,0.37 12.52,1.1 2.97,0.74 5.45,1.66 7.44,2.8 1.99,1.12 3.8,2.51 5.45,4.16 5.3,5.37 7.95,12.16 7.95,20.36 0,8.05 -2.72,14.62 -8.17,19.71 -2,1.89 -4.3,3.45 -6.89,4.66 -2.6,1.22 -5.06,2.03 -7.39,2.43 -2.33,0.39 -6.07,0.58 -11.23,0.58 z m -24.17,-65.36 v 74.93 h 25.3 c 10.21,0 18.28,-1.53 24.22,-4.6 5.95,-3.05 10.67,-7.56 14.18,-13.5 3.51,-5.95 5.27,-12.43 5.27,-19.45 0,-5.01 -0.97,-9.81 -2.9,-14.39 -1.94,-4.58 -4.7,-8.61 -8.27,-12.08 -3.66,-3.59 -7.9,-6.29 -12.73,-8.12 -2.83,-1.11 -5.43,-1.85 -7.79,-2.22 -2.37,-0.38 -6.88,-0.57 -13.54,-0.57 h -23.74" />
            <path
               inkscape:connector-curvature="0"
               id="path760"
               style="fill:#ffffff;fill-opacity:1;fill-rule:nonzero;stroke:none"
               d="m 459.762,1423.67 h 42.539 v -9.57 h -31.797 v -22.87 h 30.723 v -9.62 h -30.723 v -23.31 h 32.816 v -9.56 h -43.558 v 74.93" />
            <path
               inkscape:connector-curvature="0"
               id="path762"
               style="fill:#ffffff;fill-opacity:1;fill-rule:nonzero;stroke:none"
               d="m 566.969,1423.67 h 10.797 v -42.6 c 0,-5.76 -0.422,-10.11 -1.266,-13.04 -0.84,-2.94 -1.875,-5.38 -3.117,-7.34 -1.231,-1.95 -2.742,-3.7 -4.535,-5.24 -5.942,-5.12 -13.715,-7.68 -23.313,-7.68 -9.773,0 -17.613,2.54 -23.523,7.63 -1.793,1.57 -3.305,3.34 -4.535,5.29 -1.243,1.96 -2.258,4.34 -3.067,7.17 -0.801,2.83 -1.207,7.27 -1.207,13.32 v 42.49 H 524 v -42.6 c 0,-7.05 0.805,-11.96 2.418,-14.71 1.609,-2.76 4.062,-4.97 7.355,-6.63 3.297,-1.67 7.18,-2.5 11.657,-2.5 6.371,0 11.566,1.66 15.578,5 2.113,1.78 3.633,3.89 4.562,6.32 0.934,2.45 1.399,6.62 1.399,12.52 v 42.6" />
            <path
               inkscape:connector-curvature="0"
               id="path764"
               style="fill:#ffffff;fill-opacity:1;fill-rule:nonzero;stroke:none"
               d="m 606.93,1414.53 h -3.223 v -23.68 h 4.082 c 5.441,0 9.176,0.47 11.199,1.4 2.024,0.92 3.594,2.33 4.727,4.21 1.125,1.88 1.691,4.02 1.691,6.42 0,2.36 -0.625,4.5 -1.883,6.42 -1.253,1.91 -3.015,3.27 -5.285,4.06 -2.277,0.78 -6.047,1.17 -11.308,1.17 z m -13.965,-65.9 v 75.04 h 18.797 c 7.593,0 13.613,-1.88 18.078,-5.64 4.453,-3.76 6.683,-8.85 6.683,-15.26 0,-4.36 -1.093,-8.14 -3.277,-11.32 -2.183,-3.2 -5.316,-5.58 -9.398,-7.15 2.398,-1.58 4.746,-3.72 7.035,-6.45 2.293,-2.72 5.512,-7.46 9.668,-14.24 2.613,-4.25 4.707,-7.46 6.285,-9.61 l 3.977,-5.37 h -12.786 l -3.269,4.94 c -0.11,0.19 -0.324,0.49 -0.649,0.92 l -2.089,2.96 -3.329,5.48 -3.593,5.86 c -2.215,3.08 -4.246,5.53 -6.094,7.35 -1.848,1.83 -3.516,3.14 -5,3.94 -1.488,0.81 -3.988,1.21 -7.5,1.21 h -2.797 v -32.66 h -10.742" />
            <path
               inkscape:connector-curvature="0"
               id="path766"
               style="fill:#ffffff;fill-opacity:1;fill-rule:nonzero;stroke:none"
               d="m 689.75,1414.53 c -8.594,0 -15.652,-2.67 -21.191,-8.05 -5.528,-5.37 -8.293,-12.23 -8.293,-20.57 0,-8.1 2.769,-14.83 8.324,-20.2 5.551,-5.37 12.496,-8.05 20.84,-8.05 8.379,0 15.371,2.73 20.976,8.22 5.602,5.47 8.403,12.29 8.403,20.46 0,7.95 -2.801,14.64 -8.403,20.06 -5.605,5.43 -12.492,8.13 -20.656,8.13 z m -0.43,10.22 c 11.602,0 21.262,-3.68 28.977,-11.02 7.719,-7.34 11.574,-16.54 11.574,-27.61 0,-11.06 -3.891,-20.22 -11.683,-27.47 -7.782,-7.25 -17.606,-10.88 -29.458,-10.88 -11.312,0 -20.742,3.63 -28.277,10.88 -7.539,7.25 -11.308,16.34 -11.308,27.26 0,11.21 3.793,20.48 11.386,27.82 7.594,7.34 17.188,11.02 28.789,11.02" />
            <path
               inkscape:connector-curvature="0"
               id="path768"
               style="fill:#ffffff;fill-opacity:1;fill-rule:nonzero;stroke:none"
               d="m 764.355,1414.22 h -11.117 v -23.48 H 765 c 4.371,0 7.734,1.03 10.098,3.09 2.363,2.06 3.547,5.01 3.547,8.84 0,7.69 -4.762,11.55 -14.29,11.55 z m -21.914,-65.59 v 75.14 h 23.793 c 7.164,0 12.871,-1.93 17.133,-5.8 4.266,-3.87 6.395,-9.05 6.395,-15.57 0,-4.37 -1.094,-8.24 -3.278,-11.6 -2.183,-3.37 -5.175,-5.81 -8.968,-7.33 -3.793,-1.53 -9.239,-2.29 -16.328,-2.29 h -7.95 v -32.55 h -10.797" />
            <path
               inkscape:connector-curvature="0"
               id="path770"
               style="fill:#ffffff;fill-opacity:1;fill-rule:nonzero;stroke:none"
               d="m 799.105,1423.67 h 42.54 v -9.57 h -31.797 v -22.87 h 30.722 v -9.62 h -30.722 v -23.31 h 32.82 v -9.56 h -43.563 v 74.93" />
            <path
               inkscape:connector-curvature="0"
               id="path772"
               style="fill:#ffffff;fill-opacity:1;fill-rule:nonzero;stroke:none"
               d="m 893.848,1380.43 -12.106,27.18 -11.23,-27.18 z m -15.782,43.67 h 7.547 l 33.645,-75.47 h -10.996 l -10,22.24 H 866.25 l -9.375,-22.24 h -11.039 l 32.23,75.47" />
            <path
               inkscape:connector-curvature="0"
               id="path774"
               style="fill:#ffffff;fill-opacity:1;fill-rule:nonzero;stroke:none"
               d="m 987.094,1423.67 h 10.207 v -75.04 h -9.238 l -50.168,57.79 v -57.79 h -10.098 v 75.04 h 8.703 l 50.594,-58.28 v 58.28" />
            <path
               inkscape:connector-curvature="0"
               id="path776"
               style="fill:#ffffff;fill-opacity:1;fill-rule:nonzero;stroke:none"
               d="m 1096.13,1423.67 h 10.79 v -42.6 c 0,-5.76 -0.42,-10.11 -1.26,-13.04 -0.84,-2.94 -1.88,-5.38 -3.12,-7.34 -1.23,-1.95 -2.74,-3.7 -4.53,-5.24 -5.94,-5.12 -13.72,-7.68 -23.31,-7.68 -9.78,0 -17.62,2.54 -23.53,7.63 -1.79,1.57 -3.3,3.34 -4.53,5.29 -1.24,1.96 -2.26,4.34 -3.07,7.17 -0.8,2.83 -1.21,7.27 -1.21,13.32 v 42.49 h 10.8 v -42.6 c 0,-7.05 0.8,-11.96 2.42,-14.71 1.61,-2.76 4.06,-4.97 7.35,-6.63 3.3,-1.67 7.18,-2.5 11.66,-2.5 6.37,0 11.57,1.66 15.58,5 2.11,1.78 3.63,3.89 4.56,6.32 0.93,2.45 1.4,6.62 1.4,12.52 v 42.6" />
            <path
               inkscape:connector-curvature="0"
               id="path778"
               style="fill:#ffffff;fill-opacity:1;fill-rule:nonzero;stroke:none"
               d="m 1181.42,1423.67 h 10.21 v -75.04 h -9.24 l -50.17,57.79 v -57.79 h -10.1 v 75.04 h 8.71 l 50.59,-58.28 v 58.28" />
            <path
               inkscape:connector-curvature="0"
               id="path780"
               style="fill:#ffffff;fill-opacity:1;fill-rule:nonzero;stroke:none"
               d="m 1207.79,1348.63 h 10.75 v 75.043 h -10.75 z" />
            <path
               inkscape:connector-curvature="0"
               id="path782"
               style="fill:#ffffff;fill-opacity:1;fill-rule:nonzero;stroke:none"
               d="m 1272.46,1414.53 c -8.59,0 -15.65,-2.67 -21.19,-8.05 -5.53,-5.37 -8.3,-12.23 -8.3,-20.57 0,-8.1 2.78,-14.83 8.33,-20.2 5.55,-5.37 12.49,-8.05 20.84,-8.05 8.38,0 15.37,2.73 20.98,8.22 5.6,5.47 8.4,12.29 8.4,20.46 0,7.95 -2.8,14.64 -8.4,20.06 -5.61,5.43 -12.49,8.13 -20.66,8.13 z m -0.43,10.22 c 11.6,0 21.26,-3.68 28.98,-11.02 7.72,-7.34 11.57,-16.54 11.57,-27.61 0,-11.06 -3.89,-20.22 -11.68,-27.47 -7.78,-7.25 -17.61,-10.88 -29.46,-10.88 -11.31,0 -20.74,3.63 -28.28,10.88 -7.53,7.25 -11.3,16.34 -11.3,27.26 0,11.21 3.79,20.48 11.38,27.82 7.59,7.34 17.19,11.02 28.79,11.02" />
            <path
               inkscape:connector-curvature="0"
               id="path784"
               style="fill:#ffffff;fill-opacity:1;fill-rule:nonzero;stroke:none"
               d="m 1385.36,1423.67 h 10.21 v -75.04 h -9.24 l -50.17,57.79 v -57.79 h -10.1 v 75.04 h 8.71 l 50.59,-58.28 v 58.28" />
          </g>
        </g>
      </g>
    </g>
  </g>
</svg>
