<svg width="244" height="236" xmlns="http://www.w3.org/2000/svg" xmlns:xlink="http://www.w3.org/1999/xlink" xml:space="preserve" overflow="hidden"><defs><clipPath id="clip0"><rect x="309" y="159" width="244" height="236"/></clipPath></defs><g clip-path="url(#clip0)" transform="translate(-309 -159)"><path d="M311.5 170.5C311.5 165.53 315.529 161.5 320.5 161.5L541.5 161.5C546.47 161.5 550.5 165.53 550.5 170.5L550.5 206.5C550.5 211.471 546.47 215.5 541.5 215.5L320.5 215.5C315.529 215.5 311.5 211.471 311.5 206.5Z" stroke="#000080" stroke-width="4.58333" stroke-miterlimit="8" fill="#000080" fill-rule="evenodd"/><path d="M311.5 347.5C311.5 342.53 315.529 338.5 320.5 338.5L541.5 338.5C546.47 338.5 550.5 342.53 550.5 347.5L550.5 383.5C550.5 388.471 546.47 392.5 541.5 392.5L320.5 392.5C315.529 392.5 311.5 388.471 311.5 383.5Z" stroke="#000080" stroke-width="4.58333" stroke-miterlimit="8" fill="#000080" fill-rule="evenodd"/><path d="M311.5 256.5C311.5 251.53 315.529 247.5 320.5 247.5L541.5 247.5C546.47 247.5 550.5 251.53 550.5 256.5L550.5 292.5C550.5 297.47 546.47 301.5 541.5 301.5L320.5 301.5C315.529 301.5 311.5 297.47 311.5 292.5Z" stroke="#000080" stroke-width="4.58333" stroke-miterlimit="8" fill="#000080" fill-rule="evenodd"/></g></svg>